<svg width="61" height="37" viewBox="0 0 61 37" fill="none" xmlns="http://www.w3.org/2000/svg">
          <path d="M31.048 25.7316C31.048 21.1799 28.8405 17.8154 24.2798 16.5543C27.6074 15.0001 29.3427 12.6454 29.3427 8.9828C29.3427 1.76109 23.8378 0 17.4866 0H0V36.2588H17.9763C24.7168 36.2588 31.048 33.0987 31.048 25.7316ZM8.15188 6.18968H15.8015C18.7423 6.18968 21.3893 6.99757 21.3893 10.3326C21.3893 13.4114 19.3299 14.6503 16.4168 14.6503H8.15188V6.18968ZM8.14937 30.1011V20.1159H17.0346C20.6233 20.1159 22.8936 21.5789 22.8936 25.2932C22.8936 28.9558 20.1838 30.1011 16.8663 30.1011H8.14937Z" fill="white"/>
          <path d="M47.2033 35.9197C53.6174 35.9197 57.7711 33.0945 59.7702 27.0896H53.2607C52.5601 29.331 49.672 30.5157 47.4319 30.5157C43.1098 30.5157 40.8396 28.0403 40.8396 23.8334H60.2097C60.8224 15.4147 56.0408 8.23975 47.2008 8.23975C39.0163 8.23975 33.4612 14.2546 33.4612 22.1339C33.4612 30.3113 38.725 35.9197 47.2033 35.9197ZM46.9723 13.688C50.6766 13.688 52.54 15.8161 52.8514 19.2964H40.8496C41.0932 15.8457 43.4363 13.688 46.9723 13.688Z" fill="white"/>
          <path d="M39.3455 1.90381H54.3835V5.47525H39.3455V1.90381Z" fill="white"/>
        </svg>