<svg width="44" height="44" viewBox="0 0 44 44" fill="none" xmlns="http://www.w3.org/2000/svg">
      <path d="M44 22C44 16.1652 41.6821 10.5695 37.5563 6.44365C33.4305 2.31785 27.8348 -7.06605e-07 22 -9.6165e-07C16.1652 -1.2167e-06 10.5695 2.31785 6.44365 6.44365C2.31785 10.5695 3.10809e-06 16.1652 2.85305e-06 22C2.598e-06 27.8348 2.31785 33.4306 6.44365 37.5564C10.5695 41.6822 16.1652 44 22 44C27.8348 44 33.4305 41.6822 37.5563 37.5564C41.6821 33.4306 44 27.8348 44 22V22ZM23.375 31.625C23.375 31.9897 23.2301 32.3394 22.9723 32.5973C22.7144 32.8551 22.3647 33 22 33C21.6353 33 21.2856 32.8551 21.0277 32.5973C20.7699 32.3394 20.625 31.9897 20.625 31.625L20.625 15.6943L14.7235 21.5985C14.5957 21.7263 14.4439 21.8278 14.2769 21.8969C14.1098 21.9661 13.9308 22.0017 13.75 22.0017C13.5692 22.0017 13.3902 21.9661 13.2231 21.8969C13.0561 21.8278 12.9043 21.7263 12.7765 21.5985C12.6487 21.4707 12.5472 21.3189 12.4781 21.1519C12.4089 20.9848 12.3733 20.8058 12.3733 20.625C12.3733 20.4442 12.4089 20.2652 12.4781 20.0981C12.5472 19.9311 12.6487 19.7793 12.7765 19.6515L21.0265 11.4015C21.1542 11.2735 21.306 11.1719 21.473 11.1025C21.6401 11.0332 21.8191 10.9975 22 10.9975C22.1809 10.9975 22.3599 11.0332 22.527 11.1025C22.694 11.1719 22.8458 11.2735 22.9735 11.4015L31.2235 19.6515C31.4817 19.9097 31.6267 20.2599 31.6267 20.625C31.6267 20.9901 31.4817 21.3403 31.2235 21.5985C30.9653 21.8567 30.6151 22.0017 30.25 22.0017C29.8849 22.0017 29.5347 21.8567 29.2765 21.5985L23.375 15.6943L23.375 31.625Z" fill="white"/>
    </svg>