<svg width="38" height="37" viewBox="0 0 38 37" fill="none" xmlns="http://www.w3.org/2000/svg">
          <path d="M18.7425 8.75977C13.5038 8.75977 9.2627 12.8994 9.2627 18.0026C9.2627 23.1103 13.5084 27.2454 18.7425 27.2454C23.9812 27.2454 28.2223 23.1058 28.2223 18.0026C28.2223 12.8949 23.9766 8.75977 18.7425 8.75977ZM18.7425 24.0018C15.3419 24.0018 12.5894 21.3167 12.5894 18.0026C12.5894 14.6885 15.3434 12.0033 18.7425 12.0033C22.1416 12.0033 24.8956 14.6885 24.8956 18.0026C24.8971 21.3167 22.1431 24.0018 18.7425 24.0018Z" fill="white"/>
          <path d="M26.3528 0.113151C22.9537 -0.0414461 14.5346 -0.0339413 11.1325 0.113151C8.14289 0.249737 5.50585 0.953679 3.3799 3.02648C-0.173102 6.49066 0.28103 11.1586 0.28103 18.0044C0.28103 25.0108 -0.119221 29.5707 3.3799 32.9823C6.94676 36.4585 11.8037 36.0037 18.7419 36.0037C25.8602 36.0037 28.3171 36.0082 30.8341 35.0581C34.2562 33.7628 36.8394 30.7804 37.0919 25.4236C37.252 22.108 37.2427 13.9008 37.0919 10.5837C36.787 4.26026 33.3064 0.425347 26.3528 0.113151ZM31.7331 30.6904C29.4039 32.9613 26.1727 32.7587 18.6972 32.7587C11.0001 32.7587 7.91352 32.8697 5.66133 30.6679C3.0674 28.1508 3.53692 24.1087 3.53692 17.9804C3.53692 9.68767 2.66407 3.71541 11.2002 3.28915C13.1614 3.2216 13.7387 3.19909 18.6757 3.19909L18.7449 3.24412C26.9486 3.24412 33.3849 2.40659 33.7713 10.7278C33.8591 12.6265 33.8791 13.1969 33.8791 18.0029C33.8775 25.4206 34.0222 28.448 31.7331 30.6904Z" fill="white"/>
          <path d="M28.5981 10.5551C29.8215 10.5551 30.8133 9.58806 30.8133 8.39521C30.8133 7.20235 29.8215 6.23535 28.5981 6.23535C27.3746 6.23535 26.3828 7.20235 26.3828 8.39521C26.3828 9.58806 27.3746 10.5551 28.5981 10.5551Z" fill="white"/>
        </svg>