<svg width="44px" height="44px" viewBox="0 0 44 44" fill="none" xmlns="http://www.w3.org/2000/svg">
<path d="M39.5929 21.864H36.4853C35.8417 21.864 35.3199 22.3858 35.3199 23.0294V37.1979C35.3199 37.95 34.7079 38.5618 33.9558 38.5618H6.80183C6.04994 38.5618 5.43835 37.95 5.43835 37.1979V10.0445C5.43835 9.29231 6.04994 8.68027 6.80183 8.68027H21.6959C22.3395 8.68027 22.8613 8.1585 22.8613 7.51491V4.4073C22.8613 3.76371 22.3395 3.24194 21.6959 3.24194H6.80183C3.05123 3.24194 0 6.29362 0 10.0445V37.1981C0 40.949 3.05138 44.0003 6.80183 44.0003H33.9557C37.7066 44.0003 40.7581 40.9488 40.7581 37.1981V23.0295C40.7583 22.3858 40.2365 21.864 39.5929 21.864Z" fill="white"/>
<path d="M42.8345 0.00012207H30.4734C29.8298 0.00012207 29.308 0.521897 29.308 1.16549V4.27314C29.308 4.91674 29.8298 5.43851 30.4734 5.43851H34.7159L18.7512 21.403C18.2961 21.8581 18.2961 22.5959 18.7512 23.0511L20.9487 25.2487C21.1673 25.4673 21.4636 25.5901 21.7728 25.5901C22.0819 25.5901 22.3783 25.4673 22.5968 25.2487L38.5615 9.28392V13.5263C38.5615 14.1699 39.0833 14.6917 39.7268 14.6917H42.8345C43.4781 14.6917 43.9998 14.1699 43.9998 13.5263V1.16549C43.9998 0.521897 43.4781 0.00012207 42.8345 0.00012207Z" fill="white"/>
</svg>
