<svg width="36" height="36" viewBox="0 0 36 36" fill="none" xmlns="http://www.w3.org/2000/svg">
          <path d="M35.993 35.9998H36V22.7951C36 16.3334 34.6079 11.3623 27.0563 11.3623C23.4282 11.3623 20.9883 13.3521 19.9969 15.2436H19.8915V11.967H12.7336V35.9998H20.1868V24.0959C20.1868 20.96 20.7774 17.9295 24.6586 17.9295C28.4836 17.9295 28.5399 21.5084 28.5399 24.2928V35.9998H35.993Z" fill="white"/>
          <path d="M0.590576 11.9673H8.05776V36.0001H0.590576V11.9673Z" fill="white"/>
          <path d="M4.32422 0C1.93359 0 0 1.93359 0 4.32422C0 6.71484 1.93359 8.69063 4.32422 8.69063C6.71484 8.69063 8.64844 6.70781 8.64844 4.32422C8.64141 1.93359 6.70781 0 4.32422 0Z" fill="white"/>
        </svg>