<svg width="531" height="510" viewBox="0 0 531 510" fill="none" xmlns="http://www.w3.org/2000/svg">
        <path d="M407.377 272.65C409.782 278.375 412.122 285.011 414.136 292.492C416.281 300.299 417.581 307.52 418.426 313.895C417.451 313.961 416.476 313.961 415.501 314.026C414.201 306.154 412.382 297.566 409.847 288.524C408.547 283.97 407.182 279.676 405.817 275.577C406.337 274.602 406.857 273.626 407.377 272.65Z" fill="#304F22"/>
        <path d="M418.881 276.488C418.881 280.587 418.881 286.962 418.881 291.256C418.881 317.604 418.881 339.983 418.686 364.444C418.621 371.405 418.556 381.814 418.361 394.565C419.401 394.5 420.376 394.5 421.416 394.435C421.806 363.468 422.066 332.501 422.196 301.535C422.261 293.338 422.261 285.141 422.326 276.944C421.156 276.814 420.051 276.618 418.881 276.488Z" fill="#406F2D"/>
        <path d="M429.606 280.912C428.956 283.449 428.306 285.921 427.721 288.459C425.381 297.827 423.106 307.195 420.961 316.433C422.001 316.628 423.041 316.823 424.146 317.018C425.511 310.513 427.071 303.747 429.021 296.721C430.32 291.842 431.75 287.157 433.18 282.604C431.945 282.018 430.775 281.433 429.606 280.912Z" fill="#41722D"/>
        <path d="M447.544 304.202C446.309 306.349 444.555 309.536 442.67 313.505C433.505 332.371 430.06 348.505 426.81 364.249C425.121 372.381 423.171 383.18 421.741 396.061C420.636 396.061 419.466 396.061 418.361 396.061C420.116 381.879 422.131 369.973 423.756 361.191C428.76 334.128 432.465 325.02 435.78 318.384C439.55 310.903 443.515 305.178 446.244 301.6C446.569 302.51 447.024 303.356 447.544 304.202Z" fill="#2C411D"/>
        <path d="M466.264 326.451C466.849 327.622 467.434 328.793 468.019 330.029C464.379 331.981 459.244 335.234 453.915 340.113C443.255 350.001 438.445 360.801 434.676 369.388C432.141 375.178 429.086 383.505 427.071 393.914C425.901 393.784 424.731 393.719 423.496 393.589C424.341 389.621 425.706 384.156 427.916 377.845C431.166 368.412 435.066 356.897 444.165 345.513C448.195 340.373 455.215 332.957 466.264 326.451Z" fill="#2B401D"/>
        <path d="M391.777 295.289C395.287 298.932 400.162 304.787 404.257 312.919C408.157 320.596 410.496 328.663 413.031 351.562C414.201 361.971 415.371 375.568 416.021 391.637C415.111 391.702 414.201 391.767 413.291 391.832C413.421 388.644 413.486 384.351 413.356 379.341C413.161 372.185 412.576 365.484 411.471 356.832C409.001 337.38 407.702 327.622 404.062 318.839C401.787 313.375 398.277 306.804 392.817 299.908C392.427 298.412 392.102 296.85 391.777 295.289Z" fill="#283B1C"/>
        <path d="M390.737 352.474C393.662 356.572 396.587 360.996 399.512 365.875C404.842 374.853 409.002 383.44 412.251 391.247C411.081 391.377 409.847 391.442 408.677 391.572C406.597 385.978 403.802 379.667 400.097 372.966C396.197 365.875 392.102 359.89 388.268 354.946C389.113 354.165 389.892 353.319 390.737 352.474Z" fill="#3E662A"/>
        <path d="M404.582 342.325C405.622 347.074 406.532 352.083 407.312 357.418C409.132 370.364 409.457 382.204 409.132 392.613C410.107 392.678 411.082 392.678 412.057 392.743C412.252 386.433 412.252 379.602 411.862 372.316C411.277 361.711 409.977 352.083 408.352 343.561C407.052 343.17 405.817 342.78 404.582 342.325Z" fill="#42722D"/>
        <path d="M390.802 396.582C390.802 396.387 390.867 394.435 392.557 393.199C394.182 392.028 396.002 392.549 396.197 392.614C396.392 391.833 396.977 391.247 397.692 391.117C398.537 390.922 399.382 391.312 399.772 392.028C399.837 391.963 400.422 390.922 401.722 390.857C402.567 390.857 403.412 391.312 403.802 392.028C404.257 391.443 405.167 390.597 406.531 390.011C409.391 388.84 411.991 389.881 412.576 390.141C413.746 390.207 415.046 390.337 416.411 390.662C418.816 391.182 420.896 391.963 422.391 392.744C422.976 392.614 424.211 392.353 425.706 392.679C427.07 393.004 427.98 393.589 428.435 393.98C428.63 393.654 429.215 392.744 430.385 392.288C432.205 391.638 433.765 392.679 433.96 392.809C434.09 392.614 434.935 391.833 436.17 391.768C437.34 391.768 438.38 392.418 438.965 393.459C439.03 393.394 440.33 392.874 441.5 393.654C442.41 394.305 442.8 395.606 442.345 396.842C425.186 396.777 408.026 396.647 390.802 396.582Z" fill="#472313"/>
        <path d="M531 294.444C528.271 294.574 524.566 294.769 520.211 295.094C509.227 295.94 499.672 296.721 489.143 298.933C471.658 302.641 466.264 307.325 451.054 306.935C448.26 306.869 445.985 306.674 444.49 306.479C446.7 296.656 449.884 293.793 452.484 293.078C454.369 292.557 455.214 293.338 458.919 292.947C463.729 292.492 464.704 290.931 469.189 289.825C474.843 288.394 475.168 290.41 482.708 289.369C488.883 288.524 488.623 287.223 493.367 287.027C499.282 286.767 499.087 288.849 506.692 289.044C510.396 289.174 512.671 288.719 517.871 289.304C520.666 289.63 522.096 289.955 522.681 290.15C525.476 290.931 527.751 292.102 529.441 293.273C530.026 293.663 530.546 294.053 531 294.444Z" fill="#589332"/>
        <path d="M529.376 293.273C527.686 292.167 525.411 290.996 522.616 290.15C522.031 289.955 520.601 289.63 517.806 289.304C512.606 288.719 510.332 289.174 506.627 289.044C499.022 288.849 499.217 286.767 493.302 287.027C488.558 287.222 488.883 288.589 482.643 289.369C475.103 290.345 474.778 288.393 469.124 289.825C464.704 290.931 463.664 292.492 458.854 292.947C455.149 293.273 454.304 292.492 452.419 293.078C449.82 293.793 446.57 296.656 444.425 306.479C444.815 288.524 448.975 282.604 453.134 280.782C456.644 279.221 458.854 281.302 468.604 279.741C475.623 278.635 476.273 277.269 481.018 277.464C486.218 277.659 486.673 279.286 494.017 280.522C500.517 281.563 500.517 280.327 506.172 281.367C513.386 282.669 518.586 285.661 521.056 287.092C524.566 289.174 527.296 291.321 529.376 293.273Z" fill="#315926"/>
        <path d="M298.962 267.901C303.122 267.706 309.166 267.706 316.381 268.617C318.396 268.877 326.586 269.983 338.74 273.886C356.484 279.676 361.489 284.75 375.723 285.921C378.518 286.182 380.793 286.182 382.288 286.182C381.183 276.163 378.258 272.975 375.788 271.999C373.968 271.219 373.058 271.934 369.418 271.219C364.739 270.243 363.894 268.617 359.539 267.055C354.079 265.038 353.494 266.99 346.15 265.169C340.105 263.672 340.56 262.371 335.815 261.656C329.965 260.745 329.9 262.827 322.296 262.241C318.006 261.916 317.876 261.525 314.886 261.395C311.311 261.265 308.711 261.786 306.762 262.241C302.732 263.152 301.562 264.128 300.977 264.648C299.872 265.819 299.287 267.055 298.962 267.901Z" fill="#28401D"/>
        <path d="M298.962 267.901C299.937 266.665 300.847 265.689 301.562 265.104C302.147 264.583 302.797 263.998 303.772 263.477C304.942 262.827 305.917 262.567 306.762 262.306C308.451 261.851 309.751 261.721 311.116 261.591C312.871 261.461 314.236 261.461 314.951 261.461C318.331 261.526 318.786 261.981 322.361 262.306C329.965 262.892 329.965 260.81 335.88 261.721C340.56 262.437 340.105 263.738 346.215 265.234C353.624 267.056 354.144 265.104 359.604 267.121C363.894 268.682 364.739 270.373 369.483 271.284C373.123 272.065 374.033 271.349 375.853 272.065C378.323 273.106 381.248 276.228 382.353 286.247C383.133 267.251 379.883 261.331 376.438 259.769C375.268 259.249 372.733 258.598 369.418 256.451C365.519 253.914 365.584 252.613 363.244 251.312C358.694 248.775 356.029 252.223 346.995 251.832C340.105 251.507 339.65 249.425 334.97 250.401C330.81 251.247 330.29 253.069 325.156 254.174C320.411 255.215 320.346 253.784 316.121 254.825C315.146 255.085 315.146 255.15 305.072 260.68C303.902 261.331 302.342 262.176 301.042 263.868C299.807 265.429 299.287 266.925 298.962 267.901Z" fill="#40712D"/>
        <path d="M485.697 203.431C483.228 204.732 479.458 206.749 475.038 209.546C464.963 215.921 459.699 221.256 448.194 231.014C444.359 234.267 438.705 238.951 431.62 244.481C431.555 244.351 431.555 244.156 431.49 243.961C430.71 241.293 430.06 236.935 431.88 232.576C434.805 225.55 442.605 222.492 444.23 221.907C447.219 220.801 448.584 221.061 451.054 219.369C454.304 217.158 454.109 215.206 456.904 212.864C459.959 210.262 461.129 211.758 467.693 209.156C473.543 206.814 474.518 204.862 479.523 203.821C482.058 203.366 484.203 203.366 485.697 203.431Z" fill="#28401D"/>
        <path d="M485.698 203.431C484.203 203.365 482.058 203.365 479.523 203.821C474.453 204.862 473.543 206.813 467.693 209.155C461.129 211.823 459.894 210.261 456.904 212.864C454.174 215.206 454.304 217.157 451.054 219.369C448.584 221.061 447.219 220.8 444.23 221.906C442.67 222.492 434.87 225.55 431.88 232.576C430.06 236.934 430.71 241.228 431.49 243.96C431.425 244.156 431.36 244.286 431.295 244.481C430.905 243.05 430.125 240.773 428.955 238.17C426.42 232.706 424.796 232.12 424.666 229.518C424.406 224.313 430.71 220.02 431.945 219.174C436.105 216.377 437.47 217.743 441.825 214.75C446.829 211.367 445.855 209.025 449.754 207.464C453.849 205.838 455.734 208.115 460.934 206.228C463.989 205.057 463.469 204.211 466.653 203.04C470.683 201.544 474.258 201.804 477.703 201.999C479.653 202.129 482.448 202.52 485.698 203.431Z" fill="#305826"/>
        <path d="M394.312 231.535C393.922 230.559 397.432 228.607 399.707 226.46C402.372 223.923 403.347 220.931 403.737 219.89C404.192 218.524 405.817 213.384 403.022 209.546C402.697 209.09 401.527 207.594 399.577 206.814C398.017 206.228 396.587 206.293 394.572 206.423C392.492 206.553 392.297 206.814 390.997 206.683C388.788 206.423 388.723 205.447 387.293 205.512C386.773 205.512 386.253 205.708 382.028 208.96C380.468 210.196 380.338 210.327 379.818 210.587C377.738 211.563 376.893 210.652 375.333 211.367C373.968 211.953 374.098 212.864 371.433 216.507C370.653 217.613 370.003 218.459 369.159 219.434C366.559 222.297 365.194 222.297 363.569 224.118C361.749 226.2 362.854 226.981 361.099 231.665C359.084 236.804 357.199 237.325 357.069 240.773C357.004 242.855 357.719 243.245 358.044 246.107C358.434 249.49 357.849 252.353 357.329 254.239C362.334 254.434 366.299 254.955 368.963 255.41C372.473 255.996 374.358 256.516 377.218 256.321C380.858 256.061 383.783 254.825 385.603 253.849C391.127 254.89 394.507 253.784 396.522 252.548C398.927 251.052 398.862 249.816 401.852 247.799C406.012 245.001 407.572 246.563 410.886 244.221C412.056 243.375 413.876 240.447 417.386 234.527C419.336 231.275 419.791 230.299 420.246 228.933C421.026 226.525 421.936 223.728 420.766 220.801C419.856 218.459 417.581 215.921 414.591 215.466C410.041 214.75 406.337 219.174 405.102 220.605C401.982 224.314 400.292 228.607 400.292 228.607C399.707 230.169 398.992 232.381 396.977 233.226C396.197 233.552 395.417 233.552 394.897 233.552C395.027 233.291 395.092 232.901 394.962 232.511C394.832 231.925 394.442 231.795 394.312 231.535Z" fill="#589131"/>
        <path d="M394.442 232.576C393.272 232.51 391.517 232.185 389.698 231.209C387.813 230.168 387.618 229.388 386.058 228.282C383.718 226.655 379.623 225.159 376.503 226.851C376.243 226.981 373.708 228.412 373.448 230.559C373.318 231.405 373.643 231.99 373.253 232.836C372.733 233.942 371.368 234.332 370.914 234.462C368.184 235.373 366.169 238.105 364.609 240.317C361.749 244.286 362.334 249.555 362.854 252.222C364.414 252.157 366.754 251.962 369.614 251.637C377.283 250.661 377.478 249.62 384.888 248.514C388.333 247.994 390.998 247.799 394.377 246.237C396.912 245.001 397.952 243.895 398.537 242.919C399.512 241.358 399.057 240.708 400.032 239.276C401.072 237.78 401.982 237.91 404.647 236.154C407.117 234.527 408.807 233.356 409.067 231.6C409.197 230.168 408.482 228.412 407.182 227.957C405.037 227.176 401.722 230.429 400.422 231.73C398.667 233.486 397.952 234.852 396.782 234.787C395.742 234.722 394.962 233.551 394.442 232.576Z" fill="#558530"/>
        <path d="M394.897 233.552C394.247 233.942 393.272 234.593 392.037 235.373C384.627 240.122 380.468 242.985 377.998 244.611C374.488 246.888 369.288 250.076 362.204 253.524C366.428 250.531 369.938 248.124 372.408 246.563C379.428 241.944 383.978 239.342 391.322 234.007C392.622 233.031 393.727 232.251 394.442 231.665C394.507 231.73 394.962 231.925 395.092 232.511C395.287 233.096 394.962 233.487 394.897 233.552Z" fill="#315F29"/>
        <path d="M452.224 239.211C451.769 237.65 451.249 235.308 451.184 232.381C451.054 228.347 450.989 225.094 453.134 223.012C455.474 220.735 459.309 220.996 461.649 221.126C464.054 221.256 463.924 221.776 466.718 222.102C471.853 222.687 473.153 221.126 475.818 222.102C478.548 223.078 477.833 224.964 481.213 227.957C485.698 231.925 488.492 230.234 491.807 233.942C493.627 236.024 492.717 236.479 495.512 241.618C498.632 247.343 500.127 247.278 500.452 249.946C500.907 253.394 498.632 254.434 496.877 260.29C495.447 265.039 496.292 266.405 495.382 271.349C494.732 274.797 493.367 279.611 489.727 285.206C487.972 283.059 484.853 279.416 480.628 274.407C477.508 270.698 475.818 268.812 472.828 267.836C469.968 266.925 469.513 268.096 466.263 267.251C462.234 266.275 461.454 264.128 456.709 261.526C454.954 260.55 452.939 259.899 449.039 258.598C438.12 254.955 437.73 256.256 434.285 254.174C429.215 251.182 424.6 245.066 425.64 239.732C425.705 239.342 426.42 236.024 429.02 234.788C431.295 233.682 433.895 234.723 436.82 235.894C441.63 237.845 442.67 239.927 446.699 240.708C448.519 241.033 450.014 240.968 450.989 240.903C451.379 240.382 451.769 239.797 452.224 239.211Z" fill="#589332"/>
        <path d="M461.454 226.785C460.869 227.241 459.764 228.151 459.439 229.648C458.919 232.055 460.869 234.267 461.389 234.917C464.378 238.3 467.823 237.454 472.698 239.731C475.883 241.228 477.703 243.114 480.888 246.497C487.127 253.068 490.052 260.419 491.547 265.298C492.327 261.07 492.652 257.362 492.782 254.564C492.847 252.938 492.717 250.075 492.522 244.35C492.392 240.122 492.262 238.756 491.157 237.389C490.442 236.479 489.012 235.763 486.152 234.332C482.708 232.64 482.318 232.705 480.758 231.795C477.183 229.713 477.703 228.217 474.908 226.46C470.813 223.793 464.768 224.118 461.454 226.785Z" fill="#69A22F"/>
        <path d="M452.224 239.211C454.954 240.187 458.659 241.749 462.883 243.961C470.033 247.864 480.693 253.654 486.282 265.299C487.452 267.706 488.687 271.089 489.402 275.448C488.297 271.674 485.762 264.909 479.913 258.338C473.673 251.377 466.783 248.059 463.143 246.628C459.114 244.741 455.149 242.855 451.119 240.968C451.119 240.903 450.924 240.317 451.314 239.797C451.509 239.276 452.159 239.276 452.224 239.211Z" fill="#315F29"/>
        <path d="M418.426 253.589C417.971 254.174 417.581 254.695 417.191 255.28C416.736 255.215 416.086 255.15 415.306 254.89C413.356 254.174 412.186 252.808 411.796 252.418C409.781 250.206 404.191 246.303 399.317 247.148C398.992 247.213 395.872 247.799 393.922 250.531C391.647 253.719 392.557 257.557 392.882 258.728C393.987 263.347 397.562 266.015 400.616 268.291C403.671 270.633 407.376 272.52 411.861 274.862C413.616 275.773 414.916 276.358 416.476 277.66C419.271 279.937 419.271 281.368 421.415 282.929C424.015 284.881 425.705 284.1 429.085 285.271C433.18 286.767 434.675 289.37 437.86 292.622C440.589 295.355 445.009 298.933 451.964 301.991C453.264 292.948 454.694 288.003 455.799 285.206C456.059 284.555 457.099 281.953 457.619 278.44C457.814 276.944 458.074 275.122 457.814 273.171C457.424 269.918 455.929 268.682 454.304 265.624C451.054 259.444 453.394 257.752 450.469 253.589C448.649 250.987 447.934 251.897 442.604 247.409C437.015 242.724 437.47 241.423 433.83 239.407C432.465 238.626 428.37 236.544 423.04 236.935C420.44 237.13 417.191 237.325 415.436 239.537C412.966 242.399 414.136 248.254 418.426 253.589Z" fill="#40702D"/>
        <path d="M418.426 253.589C421.545 255.605 424.795 258.012 428.11 260.875C439.42 270.829 445.659 282.213 449.169 290.345C445.204 282.343 438.445 271.544 427.005 262.176C423.69 259.444 420.376 257.167 417.191 255.28C417.191 255.28 416.866 254.695 417.126 254.174C417.386 253.719 417.906 253.459 418.426 253.589Z" fill="#315F29"/>
        <path d="M481.018 318.71C480.498 317.279 478.808 311.944 481.473 306.609C482.188 305.178 483.813 301.925 487.387 300.689C491.807 299.193 495.902 301.86 496.487 302.316C498.177 303.422 497.722 303.877 500.452 306.284C503.767 309.212 504.742 308.951 505.716 310.708C506.951 312.985 505.521 314.026 506.561 317.214C507.601 320.466 509.291 320.011 510.201 322.873C511.306 326.321 509.096 327.492 509.811 332.762C510.201 335.624 510.851 335.559 510.721 337.511C510.526 340.439 508.966 340.894 507.146 345.058C505.261 349.351 506.236 350.522 504.417 352.409C502.792 354.1 501.362 353.71 498.502 355.271C496.747 356.182 494.472 357.874 492.327 360.866C489.207 360.151 487.127 358.849 485.827 357.288C483.618 354.751 484.398 352.929 482.058 350.262C479.718 347.595 478.223 348.571 475.883 345.968C473.478 343.301 474.713 342 472.438 338.357C469.903 334.388 467.823 334.909 465.678 331.201C464.249 328.663 464.898 327.818 463.729 323.654C461.909 317.018 459.569 316.888 458.399 312.139C458.204 311.293 456.319 303.422 461.194 297.437C461.584 296.981 466.848 290.606 473.608 292.102C476.533 292.752 479.718 294.899 480.888 298.087C481.668 300.299 481.213 302.251 480.498 305.634C480.173 306.935 480.108 307.065 478.028 313.505C477.118 316.433 476.403 318.645 477.378 319.425C477.638 319.621 477.963 319.686 478.223 319.686C478.873 319.621 479.458 319.556 480.108 319.491C480.368 319.165 480.693 318.97 481.018 318.71Z" fill="#3E682B"/>
        <path d="M489.662 353.06C488.232 346.814 486.542 340.244 484.592 333.413C483.162 328.534 481.667 323.85 480.107 319.426C479.782 318.905 479.197 318.645 478.677 318.84C478.287 318.97 477.962 319.426 477.962 319.946C479.717 324.37 481.537 328.989 483.227 333.803C485.567 340.374 487.712 346.814 489.662 353.06Z" fill="#315F29"/>
        <path d="M434.415 315.977C435.845 315.847 438.055 315.652 439.68 317.018C440.33 317.539 440.33 317.864 441.045 318.254C442.54 319.1 443.515 318.124 445.66 318.384C445.985 318.45 449.04 318.775 450.404 320.857C451.054 321.897 450.729 322.418 451.509 323.329C452.354 324.305 453.264 324.37 454.564 324.89C456.514 325.671 458.139 327.037 459.049 328.143C460.414 329.769 459.829 330.355 461.519 333.543C462.429 335.169 462.494 334.909 463.989 337.381C465.809 340.308 466.654 341.74 467.044 343.691C467.369 345.578 466.849 345.448 467.044 348.31C467.304 352.018 468.214 352.409 468.084 354.751C468.019 355.727 467.304 357.353 465.809 360.476C464.379 363.598 463.729 364.574 463.079 366.786C462.689 368.282 462.494 369.584 462.429 370.364C461.194 370.559 459.309 370.624 457.164 370.169C453.914 369.453 453.459 368.087 450.079 366.916C446.05 365.485 445.335 366.851 441.825 365.355C438.77 364.054 439.16 362.883 435.975 361.191C431.685 358.914 430.45 360.671 426.746 358.719C422.976 356.768 423.756 354.686 418.881 351.368C415.631 349.156 414.916 349.807 413.031 347.855C409.911 344.602 409.586 340.308 409.521 339.202C409.456 338.096 409.521 335.364 411.016 332.437C412.641 329.249 416.541 324.565 420.116 325.345C423.366 326.061 425.121 330.94 425.836 332.957C427.071 336.47 427.006 339.853 428.046 339.983C428.566 340.048 429.021 339.202 429.085 339.072C431.425 334.844 421.416 327.362 423.691 321.963C424.276 320.596 425.446 319.816 427.396 318.515C430.71 316.303 433.765 316.042 434.415 315.977Z" fill="#315826"/>
        <path d="M458.204 365.811C453.46 360.931 448.455 355.922 443.125 350.848C438.51 346.489 433.961 342.325 429.411 338.357C429.086 338.357 428.631 338.487 428.371 338.747C428.371 338.747 427.981 339.138 428.046 339.983C428.176 342.195 444.23 353.905 448.715 357.353C451.12 359.24 454.435 362.037 458.204 365.811Z" fill="#243E1D"/>
        <path d="M341.145 306.479C339.26 307.455 339.715 307.715 335.62 310.448C330.745 313.7 329.705 313.57 327.365 315.392C325.416 316.953 325.481 317.604 321.061 324.63C315.666 333.152 314.561 333.868 314.496 336.47C314.496 339.723 316.251 339.918 317.876 345.578C319.241 350.457 318.526 352.278 319.241 356.377C319.826 359.695 321.321 364.444 325.806 369.909C327.235 368.998 329.185 367.697 331.2 365.875C331.59 365.55 332.695 364.509 333.995 363.078C337.505 359.174 337.18 358.199 339.065 356.507C341.665 354.23 342.965 355.596 347.839 353.254C352.194 351.173 351.544 349.871 355.054 348.375C359.149 346.684 360.774 348.115 366.429 347.139C368.183 346.814 372.473 346.033 376.438 343.431C377.933 342.455 386.772 336.665 385.213 329.574C384.238 325.15 379.493 321.247 375.723 321.637C373.123 321.897 371.888 324.174 367.338 325.02C365.714 325.345 364.284 325.345 363.439 325.28C362.724 324.76 362.009 324.239 361.359 323.784C361.684 322.027 362.074 318.645 360.839 314.741C360.189 312.594 358.954 308.626 355.249 306.284C349.464 302.446 341.99 306.089 341.145 306.479Z" fill="#39712E"/>
        <path d="M361.489 323.784C361.619 323.654 362.204 323.329 362.659 323.459C363.244 323.654 363.439 324.5 363.504 325.15C359.669 326.582 355.379 328.598 350.959 331.526C336.66 341.089 330.161 354.556 327.431 361.517C328.991 357.028 333.67 344.927 343.29 335.364C351.479 327.232 357.849 326.256 361.489 323.784Z" fill="#305B27"/>
        <path d="M338.35 314.741C335.88 316.172 333.67 317.929 332.76 318.644C331.85 319.36 330.42 320.531 328.73 322.288C327.56 323.524 325.48 325.605 323.595 328.793C322.166 331.135 321.061 333.022 320.476 335.819C320.086 337.706 320.216 339.657 320.476 343.496C320.671 346.033 320.736 347.724 321.126 349.936C321.581 352.278 322.361 355.661 324.18 359.5C324.7 355.856 325.935 350.131 329.445 344.016C331.07 341.219 334.32 335.689 340.495 331.33C344.134 328.793 345.174 329.183 347.189 326.906C351.544 321.962 352.324 313.375 349.269 311.423C346.864 309.862 342.12 312.529 338.35 314.741Z" fill="#4F802F"/>
        <path d="M384.433 288.069C386.708 285.466 387.553 283.124 387.943 281.498C388.528 278.896 387.943 277.725 388.722 274.927C388.917 274.212 389.697 271.805 391.517 269.723C393.727 267.316 398.277 264.453 402.697 265.884C408.547 267.836 409.326 275.838 409.456 276.944C410.106 283.189 406.662 287.938 405.492 289.435C402.827 293.078 401.787 292.037 397.042 297.111C392.557 301.925 392.752 303.747 389.632 305.113C386.318 306.609 384.953 305.048 381.183 306.935C378.258 308.366 378.518 309.602 375.333 311.359C372.343 312.985 371.758 312.139 367.209 313.701C362.269 315.392 361.684 316.823 357.524 317.994C354.404 318.84 351.674 318.905 349.984 318.775C347.97 315.262 347.19 312.074 346.8 309.992C346.605 308.691 346.085 305.699 346.605 301.86C346.93 299.258 347.385 298.868 347.515 296.591C347.645 292.948 346.605 292.362 346.93 290.15C347.45 286.963 349.919 286.832 351.804 283.384C354.014 279.221 351.479 277.269 353.169 272.91C355.314 267.251 361.554 264.844 363.439 264.128C368.768 262.046 373.383 262.827 376.048 263.347C379.948 264.063 383.328 264.648 385.538 267.511C388.397 271.219 388.203 277.204 386.188 279.937C385.798 280.457 384.758 281.758 383.523 283.905C383.003 284.816 382.613 285.596 382.353 286.117C383.003 286.702 383.718 287.353 384.433 288.069Z" fill="#315826"/>
        <path d="M384.433 288.068C384.433 287.873 384.368 287.353 383.978 286.832C383.328 286.052 382.418 286.052 382.288 286.052C379.168 289.695 375.983 293.403 372.668 297.111C367.663 302.706 362.659 308.106 357.719 313.18C363.309 308.171 368.898 303.161 374.488 298.152C377.803 294.834 381.118 291.451 384.433 288.068Z" fill="#28431D"/>
        <path d="M403.802 321.702C405.102 321.833 405.817 320.271 408.287 317.734C409.522 316.498 411.211 314.741 413.486 313.44C415.176 312.464 418.166 310.773 421.611 311.619C424.601 312.399 426.226 314.611 426.681 315.197C428.761 318.059 428.891 321.702 427.916 324.435C427.396 325.801 425.966 327.427 423.041 330.55C420.441 333.347 419.986 333.608 418.556 335.169C413.811 340.374 414.396 342.52 411.146 345.448C408.092 348.18 406.987 346.684 401.917 349.416C396.782 352.149 393.662 355.922 388.073 362.623C385.083 366.266 384.433 367.502 381.638 370.169C378.648 373.097 375.788 375.113 373.773 376.349C368.444 371.665 366.949 367.502 366.559 364.509C366.169 361.517 367.079 360.541 366.429 356.833C365.519 351.173 363.049 350.717 362.724 346.554C362.399 342.65 364.609 342.325 366.754 334.909C368.769 328.078 367.144 327.492 369.094 323.654C371.108 319.751 372.733 320.466 378.128 313.961C381.313 310.122 381.248 309.277 383.783 307.065C386.058 305.113 388.723 302.771 392.687 302.576C393.207 302.576 398.602 302.381 401.137 306.089C403.217 309.147 402.372 313.44 402.242 313.896C401.787 316.043 400.877 317.083 401.332 318.84C401.657 320.076 402.567 321.572 403.802 321.702Z" fill="#589131"/>
        <path d="M400.162 317.019C399.772 315.718 399.317 313.831 397.822 312.465C396.522 311.229 394.117 310.188 392.102 310.903C390.477 311.489 389.568 313.311 387.943 316.824C386.448 320.076 386.903 320.141 386.058 321.573C384.108 324.76 381.703 324.37 377.998 327.363C376.958 328.208 374.033 330.746 372.343 334.844C370.783 338.617 370.978 342 371.173 345.123C371.433 348.831 372.148 350.588 372.863 353.906C373.578 357.223 374.358 362.103 374.098 368.348C375.723 367.242 378.063 365.421 379.948 362.558C382.093 359.305 381.443 358.199 383.523 354.621C386.253 349.872 390.152 347.075 391.712 345.969C395.612 343.236 396.002 344.342 398.667 342.065C402.047 339.203 401.137 337.642 405.752 331.721C408.222 328.534 409.522 326.972 411.341 325.606C413.486 324.045 415.111 323.524 416.086 321.508C416.671 320.272 417.191 318.06 416.151 316.954C414.981 315.653 412.121 316.108 410.236 317.149C406.922 318.97 406.987 322.288 404.517 322.614C403.217 322.809 401.852 321.963 401.202 321.182C400.357 320.076 400.747 319.231 400.162 317.019Z" fill="#69A32F"/>
        <path d="M403.347 321.572C403.412 321.052 403.217 320.531 402.762 320.271C402.372 320.011 401.852 320.011 401.462 320.271C398.732 322.613 395.352 325.866 391.842 330.029C389.307 333.022 384.563 338.747 380.468 347.204C376.308 355.791 374.358 363.988 373.448 370.624C374.683 364.184 377.023 356.182 381.573 347.724C382.938 345.187 386.578 338.617 393.077 331.395C396.782 327.102 400.487 323.914 403.347 321.572Z" fill="#3B732F"/>
        <path d="M473.023 505.616C435.65 505.42 398.212 505.225 360.839 505.03C355.314 505.03 351.089 500.476 351.219 495.142H482.773C483.163 500.801 478.743 505.616 473.023 505.616Z" fill="#676767"/>
        <path d="M482.707 495.206H351.219C351.219 494.686 351.284 494.165 351.349 493.645C355.964 468.273 360.514 442.901 365.128 417.529C366.558 409.462 368.053 401.395 369.483 393.329C370.328 388.71 374.358 385.327 379.103 385.327L456.709 385.912C461.454 385.912 465.418 389.36 466.198 394.044C467.498 402.046 468.798 410.048 470.098 418.05C474.258 443.487 478.418 468.924 482.577 494.361C482.642 494.621 482.707 494.881 482.707 495.206Z" fill="#808181"/>
        <path d="M470.098 417.985C467.888 418.31 465.094 417.855 460.999 418.375C458.659 418.635 457.294 419.026 455.149 419.546C452.484 420.132 446.894 421.303 442.28 421.563C436.56 421.888 432.27 420.717 427.85 419.546C419.466 417.269 419.531 415.513 413.876 414.342C406.206 412.78 399.512 414.732 394.702 416.163C391.127 417.204 379.948 420.977 374.228 420.197C373.123 420.067 369.093 419.546 364.999 417.464C366.428 409.398 367.923 401.331 369.353 393.264C370.198 388.645 374.228 385.262 378.973 385.262L456.579 385.847C461.324 385.847 465.289 389.295 466.069 393.979C467.498 401.981 468.798 409.983 470.098 417.985Z" fill="#00A096"/>
        <path d="M269.843 51.6548H259.509V233.812H269.843V51.6548Z" fill="#343434"/>
        <path d="M378.388 156.199H150.964C149.144 156.199 147.649 154.703 147.649 152.882V3.31786C147.649 1.49629 149.144 0 150.964 0H378.388C380.208 0 381.703 1.49629 381.703 3.31786V152.882C381.703 154.703 380.208 156.199 378.388 156.199Z" fill="#1B1B1B"/>
        <path d="M376.373 6.83105H153.304V150.605H376.373V6.83105Z" fill="#333333"/>
        <path d="M376.438 144.229H153.239V150.67H376.438V144.229Z" fill="#3C3C3B"/>
        <path d="M156.749 145.855V147.352H155.059V146.051C155.644 145.986 156.164 145.921 156.749 145.855Z" fill="white"/>
        <path d="M158.568 147.547V149.239C157.983 149.174 157.463 149.109 156.878 149.044V147.547H158.568Z" fill="white"/>
        <path d="M156.749 147.547V149.044C156.164 148.979 155.644 148.914 155.059 148.848V147.547H156.749Z" fill="white"/>
        <path d="M158.568 145.661V147.352H156.878V145.856C157.463 145.791 157.983 145.726 158.568 145.661Z" fill="white"/>
        <path d="M163.638 145.596H166.043C166.433 145.596 166.693 145.921 166.693 146.246V148.588C166.693 148.979 166.368 149.239 166.043 149.239H163.638C163.248 149.239 162.988 148.914 162.988 148.588V146.246C162.988 145.921 163.248 145.596 163.638 145.596Z" fill="#2D0E0F"/>
        <path d="M164.808 147.807H164.223L164.093 148.198H163.768L164.288 146.766V146.701C164.288 146.636 164.288 146.636 164.288 146.571H164.678L165.263 148.198H164.938L164.808 147.807ZM164.288 147.482H164.678C164.678 147.417 164.678 147.417 164.613 147.352C164.613 147.287 164.613 147.287 164.548 147.222C164.548 147.157 164.548 147.157 164.483 147.092C164.483 147.027 164.483 147.027 164.418 146.962C164.418 146.897 164.418 146.897 164.353 146.832C164.353 146.897 164.353 146.962 164.288 147.027C164.288 147.092 164.223 147.157 164.223 147.287C164.353 147.352 164.288 147.417 164.288 147.482Z" fill="#F4991C"/>
        <path d="M165.588 146.832C165.523 146.832 165.458 146.832 165.458 146.767C165.393 146.702 165.393 146.702 165.393 146.637C165.393 146.572 165.393 146.506 165.458 146.506C165.523 146.506 165.523 146.441 165.588 146.441C165.653 146.441 165.718 146.441 165.718 146.506C165.783 146.572 165.783 146.572 165.783 146.637C165.783 146.702 165.783 146.767 165.718 146.767C165.718 146.832 165.653 146.832 165.588 146.832ZM165.458 148.198V147.027H165.783V148.198H165.458Z" fill="#F4991C"/>
        <path d="M167.798 150.215H161.948V150.67H167.798V150.215Z" fill="#008D36"/>
        <path d="M174.948 145.53H171.113V149.369H174.948V145.53Z" fill="url(#paint0_linear)"/>
        <path d="M174.948 148.523V149.368H171.893L173.518 147.352C173.583 147.286 173.648 147.286 173.713 147.352L174.948 148.523Z" fill="#4669B1"/>
        <path d="M174.883 149.368H171.113V148.197L172.218 146.831C172.283 146.766 172.413 146.766 172.478 146.831L174.883 149.368Z" fill="url(#paint1_linear)"/>
        <path d="M173.713 146.831C173.928 146.831 174.103 146.657 174.103 146.441C174.103 146.226 173.928 146.051 173.713 146.051C173.497 146.051 173.323 146.226 173.323 146.441C173.323 146.657 173.497 146.831 173.713 146.831Z" fill="#F2F2F2"/>
        <path d="M176.053 150.215H170.203V150.67H176.053V150.215Z" fill="#008D36"/>
        <path d="M374.098 145.726H370.848V148.523H371.758L372.408 149.174L373.058 148.523H374.098V145.726Z" fill="#F6F6F6"/>
        <path d="M373.773 146.376H371.108V146.572H373.773V146.376Z" fill="#3C3C3B"/>
        <path d="M373.773 147.027H371.108V147.223H373.773V147.027Z" fill="#3C3C3B"/>
        <path d="M372.993 147.743H371.108V147.938H372.993V147.743Z" fill="#3C3C3B"/>
        <path d="M362.593 146.832L362.333 146.962L362.268 146.767L362.658 146.572H362.853V148.198H362.658V146.832H362.593Z" fill="white"/>
        <path d="M364.413 146.832H363.763L363.698 147.287C363.763 147.287 363.763 147.287 363.828 147.287C363.958 147.287 364.088 147.287 364.153 147.352C364.283 147.417 364.413 147.548 364.413 147.808C364.413 148.133 364.153 148.393 363.828 148.393C363.633 148.393 363.503 148.328 363.438 148.263L363.503 148.068C363.568 148.133 363.698 148.133 363.828 148.133C364.023 148.133 364.218 148.003 364.218 147.743C364.218 147.548 364.088 147.352 363.763 147.352C363.698 147.352 363.568 147.352 363.503 147.352L363.633 146.572H364.413V146.832Z" fill="white"/>
        <path d="M364.738 147.222C364.738 147.157 364.803 147.092 364.868 147.092C364.933 147.092 364.998 147.157 364.998 147.222C364.998 147.287 364.933 147.353 364.868 147.353C364.803 147.418 364.738 147.353 364.738 147.222ZM364.738 148.133C364.738 148.068 364.803 148.003 364.868 148.003C364.933 148.003 364.998 148.068 364.998 148.133C364.998 148.198 364.933 148.263 364.868 148.263C364.803 148.328 364.738 148.198 364.738 148.133Z" fill="white"/>
        <path d="M365.713 146.832L365.453 146.962L365.388 146.767L365.778 146.572H365.973V148.198H365.778V146.832H365.713Z" fill="white"/>
        <path d="M366.558 148.263V148.133L366.753 147.938C367.143 147.548 367.338 147.352 367.338 147.092C367.338 146.897 367.273 146.767 367.013 146.767C366.883 146.767 366.753 146.832 366.688 146.897L366.623 146.767C366.753 146.702 366.883 146.572 367.078 146.572C367.403 146.572 367.598 146.832 367.598 147.027C367.598 147.352 367.403 147.548 367.013 147.938L366.883 148.068H367.598V148.263H366.558Z" fill="white"/>
        <path d="M354.664 146.767H355.639V146.962H354.859V147.547H355.574V147.742H354.859V148.588H354.599V146.767H354.664Z" fill="white"/>
        <path d="M355.963 146.767C356.093 146.767 356.223 146.702 356.418 146.702C356.678 146.702 356.808 146.767 356.938 146.832C357.003 146.897 357.068 147.027 357.068 147.157C357.068 147.417 356.938 147.547 356.743 147.612C356.873 147.677 356.938 147.808 357.003 148.003C357.068 148.263 357.133 148.458 357.133 148.523H356.873C356.873 148.458 356.808 148.328 356.743 148.068C356.678 147.808 356.613 147.743 356.353 147.743H356.158V148.523H355.898V146.767H355.963ZM356.223 147.612H356.483C356.743 147.612 356.873 147.482 356.873 147.287C356.873 147.027 356.678 146.962 356.418 146.962C356.288 146.962 356.223 146.962 356.158 146.962V147.612H356.223Z" fill="white"/>
        <path d="M357.784 148.003L357.589 148.588H357.329L357.979 146.767H358.239L358.889 148.588H358.629L358.434 148.003H357.784ZM358.369 147.808L358.174 147.287C358.109 147.157 358.109 147.027 358.109 146.962C358.109 147.092 358.044 147.157 358.044 147.287L357.849 147.808H358.369Z" fill="white"/>
        <path d="M350.894 148.003L349.789 146.897L349.659 146.767L348.424 148.003L348.489 148.133L349.659 146.962L350.829 148.133L350.894 148.003Z" fill="#F6F6F6"/>
        <path d="M328.6 9.95361H158.438V143.058H328.6V9.95361Z" fill="#202020"/>
        <path d="M154.344 7.22119H155.839C156.034 7.22119 156.229 7.41636 156.229 7.61153V9.04276C156.229 9.23793 156.034 9.43309 155.839 9.43309H154.344C154.149 9.43309 153.954 9.23793 153.954 9.04276V7.61153C153.954 7.41636 154.149 7.22119 154.344 7.22119Z" fill="#2D0E0F"/>
        <path d="M155.058 8.58731H154.733L154.668 8.78248H154.408L154.733 7.8717V7.80664H154.993L155.318 8.78248H155.123L155.058 8.58731ZM154.733 8.39214H154.993V8.32709V8.26203V8.19698V8.13192V8.06686C154.993 8.13192 154.993 8.13192 154.993 8.19698C154.993 8.26203 154.993 8.26203 154.928 8.32709C154.798 8.26203 154.733 8.32709 154.733 8.39214Z" fill="#F4991C"/>
        <path d="M155.578 7.93698C155.578 7.93698 155.513 7.93698 155.513 7.87193C155.513 7.87193 155.448 7.80687 155.513 7.80687C155.513 7.80687 155.513 7.74181 155.578 7.74181C155.643 7.74181 155.643 7.67676 155.643 7.67676C155.708 7.67676 155.708 7.67676 155.708 7.74181V7.80687C155.708 7.80687 155.708 7.87193 155.643 7.87193C155.643 7.93698 155.578 7.93698 155.578 7.93698ZM155.448 8.78271V8.06709H155.643V8.78271H155.448Z" fill="#F4991C"/>
        <path d="M375.398 9.95361H333.93V142.928H375.398V9.95361Z" fill="#202020"/>
        <path d="M158.113 9.88867H153.889V143.188H158.113V9.88867Z" fill="#202020"/>
        <path d="M157.789 10.1489H154.214V142.733H157.789V10.1489Z" fill="#333333"/>
        <path d="M180.082 10.4092H158.828V12.8163H180.082V10.4092Z" fill="#333333"/>
        <path d="M327.69 13.2065H158.763V142.278H327.69V13.2065Z" fill="#383838"/>
        <path d="M333.345 9.95361H329.12V143.253H333.345V9.95361Z" fill="#202020"/>
        <path d="M333.02 10.2139H329.445V142.798H333.02V10.2139Z" fill="#333333"/>
        <path d="M342.704 12.9463V10.7344H334.71V12.9463V13.0764V46.3851H374.813V12.9463H342.704Z" fill="#333333"/>
        <path d="M374.098 13.5312H335.295V38.2525H374.098V13.5312Z" fill="url(#paint2_linear)"/>
        <path d="M342.704 49.7027V47.4258H334.645V49.7027V49.7678V141.692H374.748V49.7027H342.704Z" fill="#333333"/>
        <path d="M327.69 13.2065H158.763V15.4835H327.69V13.2065Z" fill="#1B1B1B"/>
        <path d="M158.721 13.256L158.721 142.652H160.996L160.996 13.256H158.721Z" fill="#1B1B1B"/>
        <path d="M284.987 25.8926H205.301V133.365H284.987V25.8926Z" fill="white"/>
        <path d="M275.888 82.8815C275.758 81.4503 275.628 80.4094 275.628 80.4094C275.368 78.2625 275.368 78.5878 275.303 78.0023C275.108 76.1807 275.238 75.7904 274.978 74.4893C274.783 73.3183 274.523 72.8629 274.393 72.6027C274.133 72.1473 273.678 71.4317 272.768 71.1714C271.923 70.9112 271.143 71.3015 270.883 71.4317C270.883 70.9112 270.883 70.1956 270.753 69.3499C270.688 69.1547 270.558 68.2439 270.103 67.138C269.973 66.8127 269.648 66.032 268.933 64.9911C268.413 64.2104 267.178 62.584 265.163 61.1528C264.123 60.4372 263.344 60.1119 262.564 60.1119C262.109 60.1119 261.719 60.1119 261.459 60.177C260.939 59.5264 260.159 58.6156 259.054 57.7048C258.339 57.1193 257.299 56.3387 255.739 55.8182C254.569 55.4279 253.139 54.9725 251.644 55.6231C250.669 56.0784 250.149 56.7941 249.824 57.2495C249.434 56.7941 248.849 56.2086 247.939 55.7532C246.834 55.1677 245.859 55.1677 244.169 55.1677C244.169 55.1677 241.83 55.1026 238.97 55.9483C238.385 56.0784 237.735 56.3387 237.085 56.9242C236.63 57.3145 236.435 57.7699 236.305 58.0952C235.915 57.9 235.33 57.7699 234.615 57.6398C233.575 57.5097 232.73 57.6398 232.47 57.7048C232.015 57.7699 230.845 58.0301 229.61 58.9409C229.22 59.2662 228.895 59.5264 228.7 59.7866C228.245 59.6565 227.4 59.5264 226.36 59.6565C225.905 59.7216 224.865 59.9167 223.956 60.6324C222.656 61.6733 222.331 63.1045 222.201 63.6249C221.616 63.8201 220.836 64.2104 219.991 64.861C219.146 65.5116 218.821 66.032 216.806 69.3499C215.506 71.4967 214.856 72.6027 214.986 73.7737C215.051 74.2941 215.246 74.7495 215.441 75.0748C215.116 75.8555 214.596 77.0265 214.401 78.5228C214.206 79.7588 213.946 81.3852 214.596 83.2068C215.311 85.2886 216.741 86.3945 217.001 86.6548C217.586 87.1101 218.561 87.8908 219.991 87.8258C220.511 87.8258 220.901 87.6957 221.161 87.6306C221.226 88.0209 221.356 88.5414 221.681 89.0618C222.396 90.2328 223.501 90.6232 224.345 90.9485C226.36 91.7291 228.115 91.4689 229.35 91.3388C230.325 91.2087 231.625 91.0135 233.055 90.2328C233.9 89.7774 234.485 89.1919 234.875 88.8016C234.81 90.8834 235.2 92.4447 235.525 93.3555C235.85 94.3314 236.24 95.3072 237.15 96.218C238.125 97.1938 239.165 97.5842 239.75 97.7793C240.53 98.0396 241.31 98.2998 242.22 97.9745C242.675 97.8444 243.065 97.5842 243.26 97.389C243.455 97.5842 243.715 97.8444 244.104 98.1697C244.949 98.8202 245.989 99.2756 248.979 99.731C250.344 99.9262 251.319 99.9912 252.099 100.056C252.489 100.707 253.139 101.553 254.049 102.203C255.609 103.374 257.169 103.634 258.664 103.83C259.639 103.96 261.589 104.155 264.059 103.634C264.578 103.504 266.918 102.984 269.258 101.292C270.623 100.317 271.013 99.666 271.273 99.2106C271.598 98.4949 271.663 97.7793 271.728 96.8685C271.793 96.4782 271.793 96.0879 271.793 95.7626C272.703 95.8927 273.418 95.3072 273.678 95.1771C274.393 94.6566 274.653 93.941 274.978 93.0302C275.108 92.6399 275.628 91.1436 275.498 88.9317C275.433 88.2161 275.368 87.3053 275.108 86.3295C275.368 86.0693 275.628 85.6789 275.823 85.0934C276.018 84.638 276.018 84.1826 275.888 82.8815ZM250.344 63.2997C250.669 62.7142 250.734 61.9335 250.929 60.4372C251.124 58.8759 250.929 58.7457 251.254 58.0301C251.384 57.835 251.774 57.0543 252.619 56.729C253.269 56.4688 253.919 56.5989 254.699 56.7941C255.544 56.9892 256.259 57.3145 257.104 57.7699C257.624 58.0952 260.679 59.9167 260.549 61.4781C260.549 61.5431 260.484 61.8684 260.419 62.1937C260.354 62.3889 260.159 63.0394 259.769 63.4948C259.639 63.69 259.184 63.8852 258.209 64.3406C257.299 64.7959 256.844 65.0562 256.649 65.0562C256.194 65.1212 255.934 65.1212 255.544 65.3164C255.414 65.3814 255.024 65.6417 255.024 66.032C255.024 66.2922 255.219 66.5525 255.479 66.6826C255.869 66.8777 256.259 66.6175 257.169 66.3573C257.689 66.1621 258.274 66.0971 259.444 65.9019C260.354 65.7718 260.679 65.7718 261.069 65.9019C261.394 66.032 261.654 66.2922 261.914 66.5525C262.109 66.7476 262.174 66.8777 262.824 67.8536C263.084 68.2439 263.214 68.4391 263.409 68.5041C263.734 68.6343 264.253 68.4391 264.448 68.1138C264.513 68.0487 264.578 67.7885 264.188 67.0078C263.863 66.3573 263.604 66.2272 263.344 65.7067C263.149 65.4465 263.214 65.5116 262.629 63.8852C262.304 63.0394 262.174 62.7792 262.174 62.3238C262.174 61.9985 262.174 61.4781 262.499 61.2829C262.694 61.1528 263.019 61.1528 264.059 61.6082C265.423 62.3238 266.203 63.1045 266.203 63.1045C267.503 64.4056 268.868 65.7067 269.583 67.9837C269.713 68.4391 269.843 69.6101 269.973 71.822C270.038 72.7328 270.103 73.4484 269.583 73.9038C269.323 74.164 268.868 74.3592 268.478 74.2941C267.958 74.2291 267.633 73.7737 267.373 73.5134C266.983 73.0581 266.333 72.6027 265.033 71.6268C263.474 70.4558 261.719 70.1956 260.939 70.0655C259.509 69.8703 258.209 70.0004 257.689 70.0004C255.869 70.1956 254.959 70.3257 254.959 70.3257C254.374 70.4558 253.789 70.651 253.269 70.2606C252.879 70.0004 252.749 69.6101 252.749 69.545C252.554 68.9595 252.944 68.7644 252.944 68.1138C252.944 67.3982 252.489 66.8777 252.164 66.4223C251.709 65.9019 251.514 65.9019 250.799 65.1212C250.409 64.6658 250.279 64.4707 250.279 64.2104C249.954 63.8852 250.214 63.5599 250.344 63.2997ZM250.474 67.8536C250.604 68.0487 250.669 68.2439 250.669 68.5041C250.669 68.5692 250.604 68.8294 250.344 69.0896C250.084 69.4149 249.694 69.545 249.109 69.7402C248.004 70.1305 247.419 70.3257 246.834 70.3257C246.184 70.3257 245.924 70.3257 245.924 70.3257C245.599 70.3257 245.404 70.2606 245.079 70.3257C244.689 70.3908 244.559 70.4558 244.494 70.5859C244.364 70.716 244.299 70.9112 244.364 71.0413C244.364 71.1064 244.429 71.1064 244.754 71.1714C245.144 71.2365 245.209 71.2365 245.404 71.3015C245.534 71.3666 245.599 71.4317 245.729 71.5618C245.729 71.5618 245.924 71.822 245.859 72.0822C245.794 72.2774 245.664 72.2774 245.664 72.4726C245.664 72.6677 245.794 72.8629 245.924 72.9279C246.184 73.1231 246.444 72.993 246.444 72.993C246.639 72.9279 246.704 72.7328 246.769 72.6027C246.769 72.6027 246.899 72.4075 247.419 71.6919C247.809 71.1714 248.329 70.9112 248.654 70.716C249.044 70.5209 249.369 70.4558 249.954 70.3257C250.214 70.2606 250.409 70.2606 250.539 70.3257C250.799 70.4558 250.929 70.7811 250.929 70.8462C250.994 71.0413 250.929 71.3015 250.799 71.4967C250.474 72.0172 250.019 72.3424 249.564 72.6027C248.849 73.0581 248.329 73.3833 248.134 73.5134C246.834 74.2941 246.899 74.3592 246.509 74.5543C245.664 74.9447 245.404 74.7495 244.299 75.0097C242.61 75.4001 241.44 76.3109 241.115 76.506C239.945 77.3517 239.165 78.0023 239.165 78.0023C238.905 78.1975 238.515 78.5228 237.93 78.5878C237.67 78.6529 237.215 78.7179 236.89 78.4577C236.565 78.1975 236.565 77.8722 236.5 77.5469C236.435 77.1566 236.5 76.8964 236.695 76.1157C236.89 75.2049 237.02 74.6845 237.02 74.5543C237.02 74.2941 237.02 73.8387 237.02 73.0581C237.02 72.8629 237.02 72.6027 237.15 72.3424C237.215 72.2774 237.345 72.0172 237.605 71.887C237.93 71.6919 238.255 71.7569 238.71 71.7569C239.035 71.7569 239.425 71.6268 240.075 71.4317C241.05 71.1064 242.09 70.651 243.455 69.9354C245.079 69.0896 245.859 68.6993 246.249 68.374C246.899 67.7885 247.679 67.3982 248.394 66.8777C248.589 66.7476 248.979 66.4223 249.369 66.5525C249.499 66.5525 249.499 66.6175 249.824 66.8777C250.279 67.5283 250.344 67.5934 250.474 67.8536ZM238.45 58.0952C239.36 57.5097 240.075 57.3145 240.075 57.3145C241.57 56.8591 242.285 56.6639 243.065 56.5338C244.104 56.4037 245.144 56.2736 246.444 56.5989C247.289 56.7941 248.589 57.1193 249.304 58.2903C249.629 58.8108 249.694 59.3312 249.759 59.5264C249.889 60.242 249.694 60.7625 249.304 61.7383C248.394 64.2755 248.524 64.2755 248.199 64.7959C247.679 65.5766 247.159 65.967 246.444 66.5525C245.404 67.3982 245.014 67.3982 241.375 69.2198C241.375 69.2198 240.27 69.7402 238.19 70.3908C237.28 70.716 236.76 70.8462 236.37 70.5209C235.85 70.1305 235.915 69.1547 235.915 68.8945C235.98 68.0487 236.37 67.4632 236.955 66.6826C237.54 65.9019 237.93 65.3164 238.645 64.7959C238.97 64.5357 239.295 64.3406 241.96 63.5599C243.065 63.2346 244.04 62.9744 245.209 62.3238C245.794 61.9985 246.379 61.6082 246.509 60.9576C246.509 60.8926 246.639 60.3721 246.314 60.1119C246.054 59.9167 245.664 59.9818 245.599 59.9818C245.274 60.0469 245.209 60.3071 244.689 60.6974C244.299 61.0227 244.039 61.2829 243.65 61.348C243.195 61.4781 242.74 61.2829 242.545 61.2179C241.96 60.9576 241.96 60.6974 241.245 60.242C240.92 60.0469 240.595 59.9167 240.075 59.7866C239.49 59.5915 239.23 59.5915 238.645 59.3312C237.8 59.006 237.735 58.8759 237.735 58.8108C237.8 58.6156 237.93 58.4205 238.45 58.0952ZM223.696 62.8443C223.826 62.3238 224.085 61.9985 224.215 61.8684C224.54 61.4781 224.93 61.2829 225.32 61.0878C225.905 60.8275 226.36 60.6974 226.75 60.6324C227.53 60.5022 228.18 60.5022 228.31 60.5022C228.57 60.5022 228.7 60.5673 229.025 60.5673C229.61 60.6324 230.065 60.6974 230.65 60.8926C231.625 61.2179 232.21 61.348 232.665 61.8034C232.795 61.9335 233.12 62.2588 233.51 62.3238C233.575 62.3238 233.965 62.4539 234.095 62.2588C234.16 62.1286 234.095 61.9335 234.095 61.8684C233.965 61.5431 233.705 61.348 232.795 60.9576C231.755 60.5022 231.235 60.3071 231.04 60.3071C230.91 60.242 230.585 60.177 230.52 60.0469C230.52 60.0469 230.52 59.9167 230.65 59.7216C230.91 59.3963 231.365 59.3312 231.69 59.2662C232.405 59.1361 232.99 59.071 233.12 59.071C234.03 59.006 234.485 59.006 235.005 59.071C235.525 59.1361 235.85 59.2011 236.24 59.3963C236.695 59.6565 236.63 59.9167 237.15 60.242C237.54 60.5022 237.865 60.6324 238.58 60.8275C238.97 60.9576 239.425 61.0878 239.75 61.1528C240.27 61.2829 240.53 61.348 240.79 61.6082C240.92 61.6733 241.18 61.9335 241.115 62.1937C241.05 62.3889 240.66 62.4539 240.14 62.6491C240.14 62.6491 239.295 62.8443 238.645 63.1695C237.93 63.4948 237.54 63.8852 237.085 64.3406C236.63 64.7959 236.11 65.3164 235.785 66.0971C235.46 66.8777 235.46 67.5934 234.875 68.4391C234.81 68.5692 234.68 68.7644 234.355 68.8945C233.835 69.0896 233.315 68.7644 233.315 68.7644C232.99 68.5692 232.925 68.309 232.73 67.9837C232.47 67.4632 232.08 67.203 231.43 66.5525C230.975 66.1621 230.52 65.7718 230 65.4465C229.48 65.1212 229.155 64.9911 228.83 64.9911C228.635 64.9911 228.115 64.9911 227.92 65.3164C227.79 65.5766 227.92 65.967 228.05 66.1621C228.245 66.4223 228.44 66.4223 229.025 66.7476C229.48 67.0078 229.87 67.2681 230 67.3331C230.26 67.5283 230.39 67.6584 230.715 67.9837C231.235 68.4391 231.3 68.5692 231.3 68.6993C231.3 69.0246 230.975 69.2198 230.975 69.2198C230.715 69.3499 230.455 69.3499 230.065 69.2848C229.675 69.2198 229.61 69.1547 229.22 69.0246C228.7 68.8945 228.635 69.0246 228.18 68.8945C227.53 68.7644 227.14 68.5041 226.945 68.374C226.49 68.0487 226.23 67.7235 226.035 67.4632C225.58 66.8127 225.71 66.6175 225.125 65.8368C224.995 65.6417 224.8 65.3164 224.475 64.9911C223.955 64.4707 223.761 64.4707 223.631 64.0803C223.501 63.5599 223.631 63.0394 223.696 62.8443ZM216.546 73.7086C216.546 73.2532 216.741 72.9279 216.871 72.7328C217.521 71.7569 216.481 73.0581 217.911 71.0413C218.756 69.8053 218.756 69.8053 219.016 69.4149C219.211 69.0246 219.146 69.0896 219.731 67.8536C219.731 67.8536 220.316 66.5525 221.161 65.4465C221.226 65.3164 221.421 65.1212 221.681 64.9911C221.746 64.9911 222.071 64.861 222.396 64.9261C222.591 64.9911 222.721 65.0562 223.176 65.5116C223.501 65.9019 223.696 66.0971 223.891 66.4223C224.28 67.0078 224.28 67.138 224.605 67.7235C224.8 68.0487 225.125 68.6343 225.71 69.1547C225.84 69.2848 226.425 69.8053 227.4 70.1305C227.595 70.1956 228.375 70.5209 229.415 70.5209C230.52 70.5209 230.585 70.2606 231.885 70.1956C232.535 70.1956 233.185 70.1956 233.835 70.4558C234.55 70.7811 235.005 71.3015 235.135 71.4317C235.59 72.0172 235.785 72.6027 235.785 72.8629C235.85 73.1882 236.045 73.9038 235.72 74.6845C235.525 75.335 235.07 75.7253 234.875 75.8555C234.81 75.9205 234.42 76.2458 233.835 76.506C233.77 76.5711 233.315 76.7662 232.665 76.8313C232.34 76.8964 231.82 76.9614 231.17 76.7662C230.715 76.6361 230.325 76.5711 230.13 76.1807C229.935 75.8555 230 75.4651 230.13 75.1398C230.26 74.9447 230.325 74.9447 230.52 74.5543C230.65 74.2941 230.715 74.164 230.715 73.9688C230.715 73.7737 230.585 73.5134 230.325 73.3833C230.325 73.3833 230.065 73.2532 229.805 73.3183C229.61 73.3833 229.48 73.5785 229.35 73.7737C229.285 73.8387 228.83 74.5543 228.505 74.9447C228.245 75.27 228.05 75.5302 227.66 75.6603C227.53 75.7254 227.14 75.8555 226.425 75.5952C225.84 75.4001 225.515 75.1398 224.8 74.6194C223.176 73.4484 222.981 73.3183 222.786 73.2532C221.876 72.7978 221.226 72.7978 221.031 72.7978C220.706 72.7978 220.186 72.7328 219.666 72.993C219.341 73.1231 219.406 73.1882 218.626 73.7086C218.431 73.8387 218.041 74.0989 217.456 74.2941C217.001 74.4893 216.806 74.4242 216.741 74.3592C216.546 74.2291 216.546 73.7737 216.546 73.7086ZM236.11 80.6046C235.915 80.9298 235.655 81.125 235.395 81.3202C235.265 81.3852 234.94 81.5804 234.55 81.7105C234.16 81.7756 233.9 81.7105 233.64 81.7105C233.12 81.6454 232.665 81.7105 231.82 81.8406C230.845 81.9707 230.325 82.2309 229.415 82.6213C229.285 82.6863 228.96 82.8165 228.765 83.0767C228.7 83.2068 228.44 83.5321 228.57 83.8573C228.7 84.2477 229.22 84.3127 229.285 84.3127C229.35 84.3127 229.48 84.3127 229.805 84.2477C230.26 84.1176 230.455 83.8574 230.715 83.6622C231.04 83.467 231.3 83.3369 231.755 83.2068C232.275 83.0116 232.795 82.8815 233.38 82.9466C233.64 82.9466 234.55 83.0767 235.07 83.7923C235.525 84.3778 235.525 85.0284 235.525 85.3536C235.525 85.6139 235.525 86.3295 234.875 87.2403C233.965 88.6715 232.535 89.3221 231.69 89.7774C231.69 89.7774 229.805 90.6232 227.27 90.6232C226.685 90.6232 226.295 90.4931 226.165 90.4931C225.84 90.428 225.58 90.2979 225.06 90.0377C224.54 89.7774 224.15 89.5823 223.891 89.3871C223.371 89.0618 223.111 88.9317 222.916 88.6715C222.656 88.3462 222.526 88.0209 222.526 87.8258C222.526 87.6957 222.396 87.3053 222.396 86.7198C222.396 86.4596 222.461 86.1994 222.591 85.809C222.721 85.2235 222.851 84.9633 223.046 84.638C223.176 84.3778 223.371 84.0525 223.696 83.7923C223.956 83.5971 224.28 83.5321 224.345 83.467C224.67 83.402 224.735 83.467 225.125 83.3369C225.45 83.2719 225.58 83.2068 225.71 83.0767C225.84 82.8815 225.905 82.5562 225.775 82.3611C225.645 82.1659 225.45 82.1008 225.32 82.1008C224.995 82.0358 224.93 82.1659 224.605 82.1659C224.215 82.1659 223.956 82.0358 223.761 81.9057C223.371 81.7105 223.111 81.4503 222.916 81.2551C222.461 80.7347 222.461 80.4094 222.071 80.3443C222.006 80.3443 221.811 80.2793 221.616 80.3443C221.421 80.4094 221.291 80.6045 221.226 80.7997C221.161 81.0599 221.291 81.1901 221.486 81.5804C221.681 82.0358 221.811 82.3611 221.876 82.6213C221.941 82.8815 222.071 83.2719 222.071 83.6622C222.071 84.7031 221.551 85.4187 221.291 85.809C220.966 86.1994 220.771 86.5246 220.316 86.6548C219.991 86.7198 219.731 86.6548 219.341 86.5246C219.146 86.4596 218.691 86.3295 218.171 86.0042C217.976 85.8741 217.456 85.5488 216.936 84.9633C216.546 84.573 216.026 83.9875 215.701 83.0116C215.441 82.296 215.441 81.7756 215.376 81.3202C215.376 80.6696 215.441 80.1492 215.506 79.5637C215.701 78.1975 215.896 78.3926 215.961 77.4168C216.026 76.7012 215.961 76.3109 216.286 75.9856C216.416 75.8555 216.611 75.7904 217.066 75.6603C217.586 75.4651 217.651 75.5302 217.976 75.4651C218.431 75.335 218.496 75.1398 219.146 74.7495C219.471 74.5543 219.666 74.4242 219.926 74.3592C220.836 74.0339 221.811 74.5543 222.396 74.8146C223.241 75.27 223.371 75.5302 224.086 76.0506C224.995 76.7012 225.775 76.9614 227.01 77.3518C227.01 77.3518 228.765 77.9373 231.105 78.1324C231.625 78.1975 231.82 78.1975 232.21 78.1975C232.795 78.1975 232.99 78.0674 233.51 78.1324C233.705 78.1324 233.965 78.1975 234.355 78.3276C234.485 78.3926 234.94 78.5228 235.46 78.9782C235.785 79.3034 235.98 79.4986 236.045 79.8239C236.305 80.2142 236.175 80.4744 236.11 80.6046ZM243.78 90.6882C243.325 90.4931 243.455 90.4931 242.545 90.0377C241.57 89.5823 241.635 89.6473 241.31 89.4522C241.115 89.3221 240.92 89.1269 240.595 89.1269C240.53 89.1269 240.205 89.0618 240.01 89.257C239.75 89.5172 239.815 89.9726 239.88 89.9726C239.88 90.1027 240.01 90.3629 240.53 90.7533C241.05 91.0786 241.375 91.0786 241.765 91.2737C241.96 91.3388 242.87 91.7291 243.26 92.5098C243.715 93.2905 243.455 94.2013 243.26 94.8518C243.065 95.5024 242.87 96.218 242.22 96.5433C241.7 96.8035 241.18 96.6083 240.4 96.4132C239.88 96.283 239.165 96.0228 238.515 95.5024C237.8 94.8518 237.54 94.2013 236.955 92.77C236.5 91.599 236.37 90.7533 236.305 90.3629C236.175 89.322 236.305 88.8016 236.435 88.4763C236.565 88.151 236.695 87.6306 237.15 87.3053C237.475 87.0451 237.8 87.0451 238.385 86.98C238.385 86.98 239.425 86.8499 240.725 86.5246C241.18 86.3945 240.985 86.3945 242.675 85.8741C243.779 85.4837 244.299 85.2886 244.949 85.1585C245.729 84.9633 245.599 85.0284 246.574 84.8332C247.939 84.5079 248.199 84.3778 248.719 84.4429C249.044 84.5079 248.979 84.573 249.889 85.0284C250.474 85.2886 250.929 85.4838 251.514 85.744C252.684 86.1994 253.009 86.1994 253.334 86.1343C253.529 86.0693 254.049 86.0042 254.114 85.6789C254.244 85.3536 253.984 85.0284 253.659 84.8332C253.464 84.7031 253.334 84.7681 252.879 84.8332C252.294 84.8332 251.839 84.7031 251.579 84.638C250.929 84.4429 250.734 84.2477 250.669 84.2477C250.604 84.1826 250.409 83.9875 250.409 83.7272C250.409 83.6622 250.409 83.402 250.734 83.0767C251.059 82.6863 251.449 82.5562 251.839 82.3611C252.229 82.1659 252.619 81.9707 253.399 81.6454C253.984 81.3202 254.634 81.125 255.219 80.7997C255.284 80.7347 255.544 80.6696 255.804 80.6696C256.129 80.6696 256.324 80.7997 256.454 80.7997C257.104 81.0599 257.949 80.8648 258.534 80.7347C259.379 80.5395 259.184 80.3443 260.094 80.1492C260.419 80.0841 260.744 80.019 260.939 79.7588C261.004 79.6938 261.264 79.4335 261.134 79.1083C261.069 78.848 260.744 78.7179 260.549 78.7179C260.354 78.7179 260.224 78.848 260.029 78.9782C259.704 79.1733 259.444 79.3034 258.859 79.4986C258.599 79.5637 258.209 79.6938 257.689 79.7588C257.364 79.7588 257.039 79.8239 256.584 79.6938C256.324 79.6287 256.064 79.5637 255.934 79.3034C255.609 78.848 255.804 78.1975 255.869 78.1324C255.934 77.9373 255.999 77.9373 256.194 77.5469C256.389 77.1566 256.454 76.9614 256.389 76.7662C256.259 76.5711 255.934 76.441 255.674 76.506C255.479 76.5711 255.414 76.7012 255.219 76.9614C255.154 77.0915 255.024 77.3518 254.894 77.7421C254.764 78.1975 254.829 78.2625 254.699 78.7179C254.634 78.848 254.569 79.1083 254.439 79.3685C254.374 79.5637 254.114 79.8889 253.529 80.3443C253.204 80.6046 252.944 80.7347 252.294 81.125C251.124 81.7105 250.929 81.7756 250.019 82.296C249.369 82.6863 249.434 82.6863 248.914 82.9466C248.264 83.2718 247.809 83.5321 247.159 83.7272C246.314 83.9875 246.249 83.7923 245.599 84.0525C245.599 84.0525 245.209 84.1826 244.754 84.2477C244.364 84.2477 244.234 84.1826 244.234 84.1176C244.104 83.9875 244.169 83.7272 244.234 83.467C244.299 83.1417 244.494 82.9466 244.624 82.6863C244.819 82.296 245.014 81.9707 245.144 81.7756C245.534 80.9298 245.534 80.5395 245.534 80.3443C245.534 80.1492 245.534 79.8889 245.339 79.8239C245.144 79.6938 244.884 79.8239 244.754 79.954C244.624 80.019 244.559 80.1492 244.429 80.3443C244.169 80.7997 244.104 80.9949 244.039 81.0599C243.844 81.5804 243.65 81.9707 243.325 82.5562C243.065 83.1417 243 83.2068 242.805 83.5971C242.61 84.1176 242.61 84.1176 242.545 84.2477C242.415 84.4429 242.22 84.573 241.18 84.9633C240.595 85.1585 240.335 85.2886 240.14 85.3536C239.685 85.4837 239.36 85.4187 238.645 85.4187C237.995 85.4187 237.67 85.4187 237.475 85.2235C237.345 85.0934 237.215 84.8982 237.215 83.7272C237.215 82.8165 237.215 82.3611 237.41 81.8406C237.67 80.9298 238.125 80.3443 238.45 79.954C238.645 79.6938 239.1 79.2384 240.205 78.4577C241.57 77.4819 242.545 77.0265 243.91 76.3759C243.91 76.3759 245.144 75.7904 246.379 75.9205C246.574 75.9205 246.769 75.9856 246.899 76.1157C246.964 76.2458 247.029 76.3759 247.029 76.7012C247.094 77.5469 247.029 77.7421 247.224 77.9373C247.224 78.0023 247.354 78.1324 247.614 78.1975C247.809 78.2625 248.069 78.2625 248.199 78.0674C248.394 77.9373 248.394 77.677 248.394 77.1566C248.459 75.9856 248.459 75.9856 248.459 75.8555C248.589 75.335 248.914 75.0097 249.239 74.6845C250.864 73.1882 251.644 72.4075 252.229 72.0822C253.659 71.3015 254.959 71.3015 256.974 71.2365C258.729 71.2365 261.069 71.1714 263.409 72.4075C264.059 72.7328 264.578 73.1231 265.553 73.9038C266.918 74.9447 267.243 75.335 267.438 75.7904C267.568 76.0506 267.763 76.6361 267.698 77.4168C267.633 77.8722 267.503 78.1975 267.243 78.783C266.593 80.2142 266.268 80.9298 265.683 81.5153C265.098 82.231 265.098 81.9057 263.993 83.0767C263.734 83.3369 263.344 83.5971 262.499 84.1826C262.369 84.2477 262.109 84.4429 261.784 84.3778C261.719 84.3778 261.589 84.3127 261.459 84.1826C261.329 83.9875 261.524 83.8573 261.459 83.5971C261.459 83.3369 261.264 83.0767 261.004 83.0116C260.679 82.9466 260.354 83.2719 260.354 83.3369C260.094 83.5971 260.094 83.9224 260.029 84.1826C260.029 84.2477 259.834 85.5488 259.574 86.3295C259.379 86.7849 259.184 87.0451 258.794 87.5005C258.469 87.8908 257.689 88.7365 256.519 89.257C256.259 89.3871 255.804 89.4522 254.959 89.6473C254.309 89.7774 253.464 89.9726 252.359 90.1027C251.189 90.2328 251.124 90.1678 250.279 90.2979C249.889 90.3629 249.499 90.4931 248.719 90.6882C247.679 91.0135 247.549 91.0786 247.029 91.1436C246.444 91.2737 246.054 91.3388 245.469 91.3388C244.949 91.1436 244.234 90.8834 243.78 90.6882ZM251.774 98.56C249.889 98.4949 248.979 98.4949 248.784 98.4299C247.029 98.2347 246.249 97.8444 245.729 97.5842C245.144 97.2589 244.819 96.9987 244.689 96.6083C244.559 96.283 244.559 95.9578 244.624 95.4373C244.689 94.8518 244.689 94.3964 244.949 93.8109C245.014 93.6157 245.274 93.1604 245.859 92.77C246.119 92.5749 246.379 92.5098 246.639 92.4447C247.679 92.1195 248.524 92.0544 248.979 91.9893C249.954 91.8592 249.759 91.7942 251.124 91.534C252.554 91.2737 252.749 91.3388 254.504 91.0786C256.194 90.8183 256.779 90.6232 257.104 90.4931C258.079 90.1678 258.729 89.9076 259.054 89.3871C259.119 89.322 259.314 89.0618 259.769 88.5414C259.899 88.4113 259.964 88.2812 260.159 88.2812C260.419 88.2161 260.679 88.4763 260.679 88.4763C260.744 88.5414 261.004 88.8667 260.744 90.0377C260.614 90.5581 260.484 91.2087 260.094 91.9243C259.899 92.3146 259.444 93.0953 258.534 93.6808C257.624 94.2663 256.779 94.3964 255.999 94.4615C254.439 94.6566 252.944 94.3314 252.489 94.2013C251.904 94.0711 251.319 94.0061 250.214 93.8109C249.824 93.7459 249.369 93.6808 249.044 94.0061C248.849 94.2013 248.589 94.5265 248.719 94.7868C248.784 95.047 249.044 95.1771 249.434 95.2421C250.279 95.5024 250.864 95.4373 251.644 95.4373C251.644 95.4373 252.554 95.4373 253.854 95.5674C254.699 95.6325 255.024 95.6975 255.284 95.9578C255.609 96.283 255.609 96.8035 255.479 97.1938C255.284 97.8444 254.699 98.1046 254.309 98.2998C253.594 98.6251 252.944 98.6251 251.774 98.56ZM253.724 100.382C253.659 100.251 253.594 100.121 253.529 99.9912C253.659 99.9912 253.789 99.9262 253.854 99.9262C253.854 100.056 253.919 100.121 253.919 100.251C254.049 100.642 254.179 100.967 254.309 101.227C254.179 101.032 253.919 100.772 253.724 100.382ZM255.284 101.032C254.959 100.512 254.764 100.056 254.569 99.666L254.634 99.6009C254.829 99.4708 255.024 99.2756 255.219 99.1455C255.349 99.666 255.479 100.317 255.804 100.967C256.064 101.618 256.324 102.138 256.584 102.593C256.194 102.268 255.739 101.748 255.284 101.032ZM256.259 99.9262C256.064 99.4708 255.999 99.0805 255.869 98.7552C256.129 98.8853 256.389 99.0154 256.714 99.1455C256.779 99.5358 256.844 99.9912 256.974 100.512C257.234 101.357 257.624 102.008 257.949 102.463C257.494 101.943 256.779 101.162 256.259 99.9262ZM258.274 100.902C257.949 100.382 257.754 99.8611 257.559 99.4057C257.819 99.4708 258.079 99.5358 258.404 99.6009C258.469 99.9912 258.599 100.382 258.729 100.837C258.989 101.618 259.379 102.203 259.704 102.659C259.314 102.268 258.794 101.683 258.274 100.902ZM260.094 100.967C259.769 100.512 259.509 100.056 259.314 99.731C259.639 99.731 259.964 99.7961 260.289 99.731C260.419 100.186 260.614 100.707 260.874 101.227C261.069 101.618 261.264 102.008 261.524 102.333C261.134 102.073 260.614 101.618 260.094 100.967ZM261.979 100.512C261.849 100.186 261.719 99.8611 261.654 99.6009C261.914 99.5358 262.174 99.5358 262.499 99.4708C262.499 99.731 262.564 100.056 262.629 100.317C262.824 101.162 263.084 101.813 263.344 102.268C262.954 102.008 262.369 101.422 261.979 100.512ZM264.059 100.772C263.604 100.317 263.344 99.7961 263.149 99.4057C263.474 99.3407 263.799 99.2756 264.123 99.2756C264.123 99.5358 264.188 99.8611 264.383 100.251C264.578 100.837 264.968 101.292 265.163 101.488C264.903 101.357 264.513 101.097 264.059 100.772ZM265.423 100.121C265.163 99.7961 264.968 99.4708 264.773 99.1455C265.033 99.0804 265.293 99.0154 265.553 98.9503C265.683 99.2756 265.813 99.6009 266.008 99.9262C266.268 100.512 266.528 101.032 266.788 101.488C266.333 101.162 265.878 100.707 265.423 100.121ZM266.853 99.8611C266.463 99.5358 266.138 99.1455 265.943 98.8202C266.203 98.7552 266.528 98.6251 266.788 98.4949C266.918 98.7552 267.048 99.0805 267.243 99.4057C267.568 99.9262 267.893 100.382 268.218 100.772C267.893 100.577 267.373 100.317 266.853 99.8611ZM268.348 99.0154C268.023 98.7552 267.828 98.4299 267.633 98.1697C267.893 98.0396 268.218 97.8444 268.478 97.6492C268.608 97.9745 268.738 98.4299 268.933 98.8202C269.128 99.2106 269.323 99.5358 269.518 99.8611C269.193 99.666 268.738 99.4057 268.348 99.0154ZM269.843 98.2347C269.583 97.8444 269.388 97.389 269.323 97.0637C269.648 96.8035 269.908 96.5433 270.168 96.3481C270.168 96.8035 270.168 97.389 270.298 97.9745C270.363 98.3648 270.493 98.6901 270.623 99.0154C270.363 98.8853 270.038 98.6251 269.843 98.2347ZM274.328 90.1678C274.198 91.9894 274.198 92.2496 274.068 92.5749C274.068 92.5749 273.873 93.2905 273.288 94.0061C273.028 94.3314 272.833 94.5265 272.508 94.5916C272.443 94.5916 272.183 94.6566 272.053 94.4615C271.858 94.2663 271.923 93.941 271.988 93.4856C272.053 93.0953 272.053 92.6399 272.053 91.6641C272.053 91.534 272.053 91.1436 271.988 90.3629C271.988 89.9076 271.923 89.6473 271.793 89.4522C271.728 89.3871 271.468 88.9968 271.078 89.0618C270.753 89.1269 270.623 89.5172 270.558 89.5172C270.363 89.9726 270.558 90.2979 270.688 90.9485C270.688 90.9485 270.818 91.6641 270.753 92.4447C270.623 93.4856 270.168 94.2013 269.973 94.4615C269.518 95.112 268.998 95.5024 268.023 96.1529C267.243 96.6734 266.398 97.2589 265.163 97.6492C264.448 97.8444 263.734 97.9745 262.369 98.1046C260.159 98.3648 260.614 98.0396 259.314 98.2998C258.859 98.3648 258.209 98.4949 257.494 98.2347C257.299 98.1697 256.974 97.9745 256.909 97.7143C256.844 97.454 256.974 97.2589 257.299 96.8685C257.754 96.3481 257.949 96.0228 258.274 95.7626C259.509 94.7217 259.379 94.1362 261.004 92.705C261.654 92.1195 261.979 91.9243 262.369 91.7942C262.954 91.599 263.214 91.6641 264.059 91.599C264.643 91.534 265.618 91.4689 266.658 91.0786C267.373 90.8183 268.023 90.6232 268.608 89.9726C268.803 89.7774 268.803 89.7124 269.648 88.151C270.363 86.8499 270.428 86.7198 270.753 86.4596C270.883 86.3295 271.533 85.8741 272.443 85.9391C272.638 85.9391 273.223 86.0042 273.613 86.4596C273.743 86.5897 273.873 86.7849 273.938 86.98C273.938 86.98 274.133 87.3704 274.263 87.7607C274.393 88.4113 274.393 89.257 274.328 90.1678ZM274.588 84.2477C274.458 84.638 274.328 84.8332 274.198 84.8982C273.938 85.0284 273.678 84.8332 273.418 84.7031C272.638 84.3778 271.793 84.638 271.143 84.8332C270.688 84.9633 269.973 85.2886 269.323 85.9391C268.348 86.915 268.608 87.6306 267.503 88.9317C267.178 89.3221 266.788 89.7774 266.203 90.1027C266.073 90.1678 264.383 91.0135 263.409 90.2328C262.954 89.9076 262.824 89.3871 262.694 88.8667C262.629 88.6064 262.434 87.8908 262.694 87.1101C262.824 86.5246 263.149 86.0693 263.929 85.2886C265.228 83.9875 265.748 83.9224 266.918 82.8815C267.698 82.1659 268.348 81.5804 268.868 80.5395C269.453 79.4335 269.063 79.3034 269.713 76.9614C270.168 75.4001 270.168 76.1157 270.883 74.099C271.013 73.7737 271.208 73.1231 271.858 72.6677C272.053 72.5376 272.248 72.3424 272.573 72.4075C273.158 72.4726 273.548 73.2532 273.678 73.6436C274.068 74.6194 274.003 75.1398 274.068 76.9614C274.133 77.677 274.198 78.4577 274.328 79.8889C274.393 80.6046 274.393 81.3852 274.523 82.1008C274.588 82.7514 274.783 83.467 274.588 84.2477Z" fill="#BE1622"/>
        <path d="M508.966 237.064C341.99 237.129 174.948 237.129 7.97112 237.194C7.64613 237.194 7.32115 237.064 7.06116 236.739L1.47144 230.624C0.431489 229.518 1.08146 227.306 2.38139 227.306H513.841C515.141 227.306 515.726 229.387 514.816 230.558C513.191 232.575 511.566 234.592 509.941 236.544C509.681 236.869 509.291 237.064 508.966 237.064Z" fill="#C69C6C"/>
        <path d="M52.6888 509.063H47.229C46.5791 509.063 46.0591 508.543 46.0591 507.892V505.16C46.0591 504.509 46.5791 503.989 47.229 503.989H52.6888C53.3387 503.989 53.8587 504.509 53.8587 505.16V507.892C53.8587 508.543 53.3387 509.063 52.6888 509.063Z" fill="#4E4D4D"/>
        <path d="M52.8186 236.023H47.0989V506.591H52.8186V236.023Z" fill="#676767"/>
        <path d="M464.444 509.389H458.984C458.334 509.389 457.814 508.868 457.814 508.218V505.485C457.814 504.835 458.334 504.314 458.984 504.314H464.444C465.094 504.314 465.614 504.835 465.614 505.485V508.218C465.614 508.868 465.094 509.389 464.444 509.389Z" fill="#4E4D4D"/>
        <path d="M464.573 236.349H458.854V506.917H464.573V236.349Z" fill="#676767"/>
        <path d="M49.8289 307.65V333.347H459.764V307.65H49.8289ZM251.514 320.466C251.514 324.304 248.394 327.427 244.559 327.427H69.6529C65.8181 327.427 62.6982 324.304 62.6982 320.466C62.6982 316.628 65.8181 313.505 69.6529 313.505H244.559C248.394 313.505 251.514 316.628 251.514 320.466ZM446.959 320.466C446.959 324.304 443.839 327.427 440.005 327.427H265.098C261.263 327.427 258.144 324.304 258.144 320.466C258.144 316.628 261.263 313.505 265.098 313.505H440.005C443.839 313.505 446.959 316.628 446.959 320.466Z" fill="#676767"/>
        <path d="M321.321 227.371H211.021C210.371 227.371 209.916 226.85 209.916 226.265V156.915C209.916 156.264 210.436 155.809 211.021 155.809H321.386C322.036 155.809 322.491 156.33 322.491 156.915V226.2C322.491 226.85 321.971 227.371 321.321 227.371Z" fill="#9A9999"/>
        <path d="M321.32 227.045H210.956C210.566 227.045 210.241 226.72 210.241 226.33V156.85C210.241 156.46 210.566 156.134 210.956 156.134H321.32C321.71 156.134 322.035 156.46 322.035 156.85V226.33C322.035 226.72 321.71 227.045 321.32 227.045Z" fill="black"/>
        <path d="M317.876 160.103H214.206V222.817H317.876V160.103Z" fill="#79BE7C"/>
        <path d="M318.006 219.824H214.141V222.817H318.006V219.824Z" fill="#3C3C3B"/>
        <path d="M215.766 220.605V221.321H214.986V220.735C215.246 220.67 215.506 220.67 215.766 220.605Z" fill="white"/>
        <path d="M216.611 221.386V222.166C216.351 222.166 216.091 222.101 215.831 222.101V221.386H216.611Z" fill="white"/>
        <path d="M215.766 221.386V222.101C215.506 222.101 215.246 222.036 214.986 222.036V221.451H215.766V221.386Z" fill="white"/>
        <path d="M216.611 220.54V221.321H215.831V220.605C216.091 220.605 216.351 220.54 216.611 220.54Z" fill="white"/>
        <path d="M218.95 220.475H220.055C220.25 220.475 220.38 220.605 220.38 220.8V221.906C220.38 222.101 220.25 222.231 220.055 222.231H218.95C218.755 222.231 218.625 222.101 218.625 221.906V220.8C218.625 220.67 218.82 220.475 218.95 220.475Z" fill="#2D0E0F"/>
        <path d="M219.471 221.516H219.211L219.146 221.711H219.016L219.276 221.06C219.276 221.06 219.276 221.06 219.276 220.995H219.471L219.731 221.711H219.601L219.471 221.516ZM219.276 221.385H219.471V221.32V221.255V221.19V221.125V221.06V221.125C219.471 221.19 219.471 221.19 219.406 221.255C219.276 221.32 219.276 221.32 219.276 221.385Z" fill="#F4991C"/>
        <path d="M219.861 221.06C219.796 220.995 219.796 220.995 219.796 220.995V220.93H219.861H219.926V220.995V221.06C219.926 221.06 219.926 221.06 219.861 221.06ZM219.796 221.711V221.125H219.926V221.711H219.796Z" fill="#F4991C"/>
        <path d="M220.901 222.622H218.171V222.817H220.901V222.622Z" fill="#008D36"/>
        <path d="M224.281 220.475H222.461V222.296H224.281V220.475Z" fill="url(#paint3_linear)"/>
        <path d="M224.215 221.841V222.231H222.785L223.565 221.32C223.565 221.32 223.63 221.255 223.695 221.32L224.215 221.841Z" fill="#4669B1"/>
        <path d="M224.215 222.231H222.46V221.711L222.98 221.06C222.98 220.995 223.045 220.995 223.11 221.06L224.215 222.231Z" fill="url(#paint4_linear)"/>
        <path d="M223.631 221.06C223.738 221.06 223.825 220.973 223.825 220.865C223.825 220.757 223.738 220.67 223.631 220.67C223.523 220.67 223.436 220.757 223.436 220.865C223.436 220.973 223.523 221.06 223.631 221.06Z" fill="#F2F2F2"/>
        <path d="M224.735 222.622H222.005V222.817H224.735V222.622Z" fill="#008D36"/>
        <path d="M316.901 220.54H315.406V221.841H315.861L316.121 222.166L316.446 221.841H316.901V220.54Z" fill="#F6F6F6"/>
        <path d="M316.772 220.865H315.537V220.93H316.772V220.865Z" fill="#3C3C3B"/>
        <path d="M316.771 221.19H315.536V221.256H316.771V221.19Z" fill="#3C3C3B"/>
        <path d="M316.381 221.516H315.536V221.581H316.381V221.516Z" fill="#3C3C3B"/>
        <path d="M311.571 221.061L311.441 221.126V221.061L311.636 220.996H311.701V221.777H311.571V221.061Z" fill="white"/>
        <path d="M312.416 221.06H312.091V221.255H312.156C312.221 221.255 312.286 221.255 312.351 221.321C312.416 221.386 312.481 221.451 312.481 221.516C312.481 221.646 312.351 221.776 312.221 221.776C312.156 221.776 312.091 221.776 312.026 221.711V221.646C312.026 221.646 312.091 221.711 312.221 221.711C312.351 221.711 312.416 221.646 312.416 221.516C312.416 221.386 312.351 221.321 312.221 221.321C312.156 221.321 312.156 221.321 312.091 221.321L312.156 220.93H312.546V221.06H312.416Z" fill="white"/>
        <path d="M312.546 221.255C312.546 221.19 312.546 221.19 312.611 221.19C312.676 221.19 312.676 221.19 312.676 221.255C312.676 221.321 312.676 221.321 312.611 221.321C312.546 221.321 312.546 221.321 312.546 221.255ZM312.546 221.646C312.546 221.581 312.546 221.581 312.611 221.581C312.676 221.581 312.676 221.581 312.676 221.646C312.676 221.711 312.676 221.711 312.611 221.711C312.546 221.776 312.546 221.711 312.546 221.646Z" fill="white"/>
        <path d="M313.001 221.06L312.871 221.125V221.06L313.066 220.995H313.131V221.776H313.001V221.06Z" fill="white"/>
        <path d="M313.391 221.711L313.456 221.581C313.651 221.385 313.716 221.32 313.716 221.19C313.716 221.125 313.651 221.06 313.586 221.06C313.521 221.06 313.456 221.125 313.391 221.125L313.326 221.06C313.391 220.995 313.456 220.995 313.521 220.995C313.716 220.995 313.781 221.125 313.781 221.19C313.781 221.32 313.651 221.451 313.521 221.581L313.456 221.646H313.781V221.711H313.391Z" fill="white"/>
        <path d="M307.866 220.996H308.321V221.061H307.996V221.321H308.321V221.386H307.996V221.776H307.866V220.996Z" fill="white"/>
        <path d="M308.451 221.06C308.516 221.06 308.581 221.06 308.646 221.06C308.776 221.06 308.841 221.06 308.906 221.125C308.971 221.19 308.971 221.19 308.971 221.255C308.971 221.385 308.906 221.45 308.841 221.45C308.906 221.45 308.971 221.515 308.971 221.646C308.971 221.776 309.036 221.841 309.036 221.906H308.906C308.906 221.906 308.841 221.776 308.841 221.711C308.841 221.581 308.776 221.581 308.646 221.515H308.516V221.906H308.451V221.06ZM308.581 221.45H308.711C308.841 221.45 308.906 221.385 308.906 221.32C308.906 221.19 308.841 221.19 308.711 221.19C308.646 221.19 308.646 221.19 308.581 221.19V221.45Z" fill="white"/>
        <path d="M309.296 221.581L309.231 221.841H309.101L309.361 220.995H309.491L309.751 221.841H309.621L309.556 221.581H309.296ZM309.556 221.516L309.491 221.255C309.491 221.19 309.491 221.125 309.426 221.125C309.426 221.19 309.426 221.255 309.361 221.255L309.296 221.516H309.556Z" fill="white"/>
        <path d="M306.111 221.646L305.591 221.061H305.526L304.941 221.646H305.006L305.526 221.126L306.046 221.646H306.111Z" fill="#F6F6F6"/>
        <path d="M321.516 227.305H210.761C210.306 227.305 209.981 226.98 209.981 226.525V223.077C209.981 222.947 210.111 222.816 210.241 222.816H322.101C322.231 222.816 322.361 222.947 322.361 223.077V226.525C322.296 226.98 321.906 227.305 321.516 227.305Z" fill="#B4B4B4"/>
        <path d="M276.603 226.915H254.764C254.699 226.915 254.634 226.85 254.634 226.785V225.874C254.634 225.809 254.699 225.744 254.764 225.744H276.603C276.668 225.744 276.733 225.809 276.733 225.874V226.785C276.733 226.85 276.668 226.915 276.603 226.915Z" fill="#878787"/>
        <path d="M321.126 225.288H211.216C211.021 225.288 210.826 225.093 210.826 224.898V223.597C210.826 223.402 211.021 223.207 211.216 223.207H321.126C321.321 223.207 321.516 223.402 321.516 223.597V224.898C321.516 225.158 321.321 225.288 321.126 225.288Z" fill="#9D9D9C"/>
        <defs>
        <linearGradient id="paint0_linear" x1="171.832" y1="146.354" x2="174.686" y2="148.936" gradientUnits="userSpaceOnUse">
        <stop stop-color="#32ADE4"/>
        <stop offset="1" stop-color="#848AC3"/>
        </linearGradient>
        <linearGradient id="paint1_linear" x1="171.347" y1="147.859" x2="174.671" y2="149.638" gradientUnits="userSpaceOnUse">
        <stop stop-color="#104786"/>
        <stop offset="1" stop-color="#1C3B70"/>
        </linearGradient>
        <linearGradient id="paint2_linear" x1="354.737" y1="38.2657" x2="354.737" y2="13.5606" gradientUnits="userSpaceOnUse">
        <stop stop-color="#FFEF26"/>
        <stop offset="0.0594872" stop-color="#FFE000"/>
        <stop offset="0.1303" stop-color="#FFD300"/>
        <stop offset="0.2032" stop-color="#FECB00"/>
        <stop offset="0.2809" stop-color="#FDC800"/>
        <stop offset="0.6685" stop-color="#F18F34"/>
        <stop offset="0.8876" stop-color="#E95F32"/>
        <stop offset="1" stop-color="#E3312D"/>
        </linearGradient>
        <linearGradient id="paint3_linear" x1="222.781" y1="220.845" x2="224.109" y2="222.046" gradientUnits="userSpaceOnUse">
        <stop stop-color="#32ADE4"/>
        <stop offset="1" stop-color="#848AC3"/>
        </linearGradient>
        <linearGradient id="paint4_linear" x1="222.555" y1="221.545" x2="224.102" y2="222.373" gradientUnits="userSpaceOnUse">
        <stop stop-color="#104786"/>
        <stop offset="1" stop-color="#1C3B70"/>
        </linearGradient>
        </defs>
        </svg>