<svg width="70" height="50" viewBox="0 0 70 50" fill="none" xmlns="http://www.w3.org/2000/svg">
<path d="M45.9375 25C45.9375 27.9008 44.7852 30.6828 42.734 32.734C40.6828 34.7852 37.9008 35.9375 35 35.9375C32.0992 35.9375 29.3172 34.7852 27.266 32.734C25.2148 30.6828 24.0625 27.9008 24.0625 25C24.0625 22.0992 25.2148 19.3172 27.266 17.266C29.3172 15.2148 32.0992 14.0625 35 14.0625C37.9008 14.0625 40.6828 15.2148 42.734 17.266C44.7852 19.3172 45.9375 22.0992 45.9375 25V25Z" fill="white"/>
<path d="M0 25C0 25 13.125 0.9375 35 0.9375C56.875 0.9375 70 25 70 25C70 25 56.875 49.0625 35 49.0625C13.125 49.0625 0 25 0 25ZM35 40.3125C39.0611 40.3125 42.9559 38.6992 45.8276 35.8276C48.6992 32.9559 50.3125 29.0611 50.3125 25C50.3125 20.9389 48.6992 17.0441 45.8276 14.1724C42.9559 11.3008 39.0611 9.6875 35 9.6875C30.9389 9.6875 27.0441 11.3008 24.1724 14.1724C21.3008 17.0441 19.6875 20.9389 19.6875 25C19.6875 29.0611 21.3008 32.9559 24.1724 35.8276C27.0441 38.6992 30.9389 40.3125 35 40.3125V40.3125Z" fill="white"/>
</svg>

