<svg width="46" height="36" viewBox="0 0 46 36" fill="none" xmlns="http://www.w3.org/2000/svg">
          <path d="M40.5847 8.97785C42.4147 7.69846 43.9541 6.10154 45.2085 4.26277V4.26092C43.5341 4.98277 41.7529 5.46277 39.8929 5.69538C41.8054 4.57108 43.266 2.80431 43.9522 0.675692C42.1691 1.72246 40.2004 2.46092 38.1022 2.87446C36.4091 1.09846 33.996 0 31.3635 0C26.256 0 22.1441 4.08185 22.1441 9.08492C22.1441 9.80492 22.206 10.4972 22.3579 11.1563C14.6891 10.7871 7.90162 7.16862 3.34162 1.65415C2.54662 3.01477 2.07787 4.57108 2.07787 6.24554C2.07787 9.39138 3.72225 12.1791 6.17662 13.7945C4.6935 13.7668 3.24037 13.3422 2.0085 12.6757V12.7754C2.0085 17.1895 5.20537 20.856 9.39975 21.7015C8.64787 21.9046 7.83037 22.0006 6.981 22.0006C6.39037 22.0006 5.79412 21.9674 5.23537 21.8455C6.42975 25.4418 9.8235 28.0874 13.8547 28.1742C10.716 30.5908 6.72975 32.0474 2.41537 32.0474C1.65975 32.0474 0.934121 32.0142 0.208496 31.9237C4.296 34.5175 9.13725 36 14.361 36C30.6416 36 41.2522 22.6265 40.5847 8.97785Z" fill="white"/>
        </svg>