<svg width="52" height="36" viewBox="0 0 52 36" fill="none" xmlns="http://www.w3.org/2000/svg">
          <path d="M50.0801 5.14379L50.1439 5.55885C49.5276 3.37979 47.8638 1.69838 45.7494 1.08638L45.7048 1.07579C41.729 2.90309e-05 25.7301 2.92659e-05 25.7301 2.92659e-05C25.7301 2.92659e-05 9.7715 -0.0211474 5.7553 1.07579C3.60058 1.69838 1.9346 3.37979 1.32898 5.51438L1.31836 5.55885C-0.166999 13.2904 -0.177624 22.5805 1.38423 30.8584L1.31836 30.4391C1.9346 32.6181 3.59845 34.2995 5.7128 34.9115L5.75743 34.9221C9.729 36 25.7322 36 25.7322 36C25.7322 36 41.6886 36 45.7069 34.9221C47.8638 34.2995 49.5298 32.6181 50.1354 30.4835L50.146 30.4391C50.8218 26.8433 51.2085 22.7054 51.2085 18.4786C51.2085 18.324 51.2085 18.1673 51.2064 18.0106C51.2085 17.8666 51.2085 17.6951 51.2085 17.5235C51.2085 13.2946 50.8218 9.15673 50.0801 5.14379ZM20.6259 25.7315V10.2876L33.941 18.0212L20.6259 25.7315Z" fill="white"/>
        </svg>